<?xml version="1.0" encoding="UTF-8" standalone="no"?>
<!-- Created with Inkscape (http://www.inkscape.org/) -->

<svg
   width="10.956999778747559mm"
   height="1.7999999523162842mm"
   viewBox="0 0 10.956999778747559 1.7999999523162842"
   version="1.1"
   id="svg5"
   sodipodi:docname="branding.svg"
   inkscape:version="1.1 (c4e8f9e, 2021-05-24)"
   xmlns:inkscape="http://www.inkscape.org/namespaces/inkscape"
   xmlns:sodipodi="http://sodipodi.sourceforge.net/DTD/sodipodi-0.dtd"
   xmlns="http://www.w3.org/2000/svg"
   xmlns:svg="http://www.w3.org/2000/svg">
  <sodipodi:namedview
     id="namedview7"
     pagecolor="#ffffff"
     bordercolor="#666666"
     borderopacity="1.0"
     inkscape:pageshadow="2"
     inkscape:pageopacity="0.0"
     inkscape:pagecheckerboard="0"
     inkscape:document-units="mm"
     showgrid="false"
     inkscape:zoom="0.70710678"
     inkscape:cx="226.27417"
     inkscape:cy="214.25335"
     inkscape:window-width="1920"
     inkscape:window-height="1027"
     inkscape:window-x="0"
     inkscape:window-y="25"
     inkscape:window-maximized="0"
     inkscape:current-layer="g19"
     fit-margin-top="0"
     fit-margin-left="0"
     fit-margin-right="0"
     fit-margin-bottom="0" />
  <defs
     id="defs2" />
  <g
     inkscape:label="[fixed] BG"
     inkscape:groupmode="layer"
     sodipodi:insensitive="true"
     id="g17">
    <rect
       x="0"
       y="0"
       width="1.8"
       height="8"
       style="fill:#ffffff;fill-opacity:1;stroke:none"
       id="rect15" />
  </g>
  <g
     inkscape:label="F.SilkS"
     inkscape:groupmode="layer"
     id="g19"
     style="display:inline">
    <g
       id="g16098"
       transform="scale(18.340513)">
      <path
         id="path349"
         style="font-style:normal;font-weight:normal;font-size:0.527067px;line-height:0%;font-family:sans-serif;letter-spacing:-0.53716px;word-spacing:0px;display:inline;fill:#000000;fill-opacity:1;stroke:none;stroke-width:0.017187px;stroke-linecap:butt;stroke-linejoin:miter;stroke-opacity:1"
         d="m 1.6889681,0.89940199 q 0,0.44132891 -0.2149811,0.67096341 Q 1.2590058,1.8 0.84448409,1.8 0.43590107,1.8 0.21735669,1.5691694 0,1.3383389 0,0.89700999 0,0.4604651 0.21616893,0.23083056 0.43352559,0 0.84685958,0 1.2613813,0 1.4751747,0.22843854 1.6889681,0.45687704 1.6889681,0.89940199 Z m -1.19486773,0 q 0,0.50710961 0.35038372,0.50710961 0.17816121,0 0.26367861,-0.1231893 0.086705,-0.1231894 0.086705,-0.38392031 0,-0.26192688 -0.087893,-0.3863123 Q 1.0202698,0.3875083 0.84685958,0.3875083 q -0.35275921,0 -0.35275921,0.51189369 z" />
      <path
         id="path351"
         style="font-style:normal;font-weight:normal;font-size:0.527067px;line-height:0%;font-family:sans-serif;letter-spacing:-0.494182px;word-spacing:0px;display:inline;fill:#000000;fill-opacity:1;stroke:none;stroke-width:0.017187px;stroke-linecap:butt;stroke-linejoin:miter;stroke-opacity:1"
         d="m 2.9285479,1.2450498 q 0,0.1626578 -0.081954,0.2894353 Q 2.7646396,1.6600664 2.6102332,1.7306312 2.4558268,1.8 2.2479721,1.8 2.0745619,1.8 1.9569755,1.7760796 1.8393891,1.7509634 1.7123008,1.6899668 V 1.2689701 q 0.1342148,0.069369 0.2791192,0.1088372 0.1449044,0.038273 0.2660541,0.038273 0.1045212,0 0.1532186,-0.035881 0.048697,-0.037076 0.048697,-0.094485 0,-0.035881 -0.020192,-0.062193 Q 2.4201946,1.1960133 2.3762482,1.168505 2.3334895,1.1409967 2.1458264,1.0560797 1.9759794,0.97833887 1.890462,0.90538205 1.8061324,0.83242524 1.7645614,0.73794021 q -0.040383,-0.0944851 -0.040383,-0.2236545 0,-0.24159468 0.1745979,-0.37674418 0.1745981,-0.1351495 0.4798476,-0.1351495 0.2696173,0 0.5499242,0.12558139 L 2.7848312,0.49275746 Q 2.5413442,0.38033222 2.3643708,0.38033222 q -0.091456,0 -0.1330271,0.0322924 -0.041571,0.0322924 -0.041571,0.0801329 0,0.0514286 0.052261,0.092093 0.053448,0.0406645 0.2874334,0.14830568 0.2244831,0.10166115 0.3111882,0.21887045 0.087893,0.11601325 0.087893,0.29302315 z" />
      <path
         id="path353"
         style="font-style:normal;font-weight:normal;font-size:0.527067px;line-height:0%;font-family:sans-serif;letter-spacing:-0.229419px;word-spacing:0px;display:inline;fill:#000000;fill-opacity:1;stroke:none;stroke-width:0.017187px;stroke-linecap:butt;stroke-linejoin:miter;stroke-opacity:1"
         d="M 4.4901363,1.7760797 H 3.9604035 L 3.6171465,1.1075083 3.4781807,1.1912293 V 1.7760797 H 3.0066474 V 0.02750831 H 3.4781807 V 0.78697677 Q 3.513813,0.71641195 3.6218974,0.56332227 L 3.986534,0.02750831 H 4.4996383 L 3.9520895,0.81089698 Z" />
      <path
         id="path355"
         style="font-style:normal;font-weight:normal;font-size:0.527067px;line-height:0%;font-family:sans-serif;letter-spacing:-0.39507px;word-spacing:0px;display:inline;fill:#000000;fill-opacity:1;stroke:none;stroke-width:0.017187px;stroke-linecap:butt;stroke-linejoin:miter;stroke-opacity:1"
         d="M 4.5895255,1.7760797 V 0.02750831 H 5.0610589 V 1.7760797 Z" />
      <path
         id="path357"
         style="font-style:normal;font-weight:normal;font-size:0.527067px;line-height:0%;font-family:sans-serif;letter-spacing:-0.564189px;word-spacing:0px;display:inline;fill:#000000;fill-opacity:1;stroke:none;stroke-width:0.017187px;stroke-linecap:butt;stroke-linejoin:miter;stroke-opacity:1"
         d="M 6.0472336,1.7760797 H 5.5780759 V 0.41382062 H 5.1540519 V 0.02750831 H 6.4700692 V 0.41382062 H 6.0472336 Z" />
      <path
         id="path359"
         style="font-style:normal;font-weight:normal;font-size:0.527067px;line-height:0%;font-family:sans-serif;letter-spacing:-0.634195px;word-spacing:0px;display:inline;fill:#000000;fill-opacity:1;stroke:none;stroke-width:0.017187px;stroke-linecap:butt;stroke-linejoin:miter;stroke-opacity:1"
         d="m 8.1255087,0.89940199 q 0,0.44132891 -0.2149812,0.67096341 Q 7.6955459,1.8 7.2810251,1.8 6.8724412,1.8 6.6538972,1.5691694 6.4365404,1.3383389 6.4365404,0.89700999 q 0,-0.43654489 0.2161692,-0.66617943 Q 6.8700664,0 7.2833999,0 7.6979215,0 7.9117151,0.22843854 8.1255087,0.45687704 8.1255087,0.89940199 Z m -1.1948677,0 q 0,0.50710961 0.3503841,0.50710961 0.1781607,0 0.2636782,-0.1231893 0.086705,-0.1231894 0.086705,-0.38392031 0,-0.26192688 -0.087893,-0.3863123 -0.086705,-0.12558139 -0.260115,-0.12558139 -0.3527597,0 -0.3527593,0.51189369 z" />
      <path
         id="path361"
         style="font-style:normal;font-weight:normal;font-size:0.527067px;line-height:0%;font-family:sans-serif;letter-spacing:-0.756181px;word-spacing:0px;display:inline;fill:#000000;fill-opacity:1;stroke:none;stroke-width:0.017187px;stroke-linecap:butt;stroke-linejoin:miter;stroke-opacity:1"
         d="M 9.8451048,1.7760797 H 9.2298545 L 8.5956013,0.54418606 H 8.5849148 Q 8.6074813,0.83481728 8.6074813,0.987907 V 1.7760797 H 8.191769 V 0.02750831 H 8.8046437 L 9.4365216,1.2426578 h 0.00713 q -0.01663,-0.26431893 -0.01663,-0.42458469 v -0.7905648 h 0.4180851 z" />
      <path
         id="path363"
         style="font-style:normal;font-variant:normal;font-weight:800;font-stretch:normal;font-size:6.23799px;line-height:1.25;font-family:'Open Sans';-inkscape-font-specification:'Open Sans Ultra-Bold';letter-spacing:-0.376357px;word-spacing:0px;display:inline;fill:#000000;fill-opacity:1;stroke:none;stroke-width:0.017187px;stroke-linecap:butt;stroke-linejoin:miter;stroke-opacity:1"
         d="M 10.956519,1.7760797 H 9.9255596 V 0.02750831 h 1.0309594 v 0.37913618 h -0.561802 v 0.27508307 h 0.520231 V 1.0608638 h -0.520231 v 0.3300997 h 0.561802 z" />
    </g>
    <g
       id="g16088"
       transform="scale(18.340513)">
      <path
         id="path349-5"
         style="font-style:normal;font-weight:normal;font-size:0.527067px;line-height:0%;font-family:sans-serif;letter-spacing:-0.53716px;word-spacing:0px;display:inline;fill:#000000;fill-opacity:1;stroke:none;stroke-width:0.0171874px;stroke-linecap:butt;stroke-linejoin:miter;stroke-opacity:1"
         d="m 1.6890423,2.899402 q 0,0.4413289 -0.2149906,0.6709634 Q 1.2590611,3.8 0.84452119,3.8 0.43592025,3.8 0.21736624,3.5691694 0,3.3383389 0,2.89701 0,2.4604651 0.21617839,2.2308306 0.43354465,2 0.8468968,2 1.2614367,2 1.4752395,2.2284386 1.6890423,2.4568771 1.6890423,2.899402 Z m -1.19492019,0 q 0,0.5071096 0.35039908,0.5071096 0.17816901,0 0.26369021,-0.1231893 0.086709,-0.1231894 0.086709,-0.3839203 0,-0.2619268 -0.087897,-0.3863123 -0.086709,-0.1255814 -0.2601265,-0.1255814 -0.35277469,0 -0.35277479,0.5118937 z" />
      <path
         id="path351-4"
         style="font-style:normal;font-weight:normal;font-size:0.527067px;line-height:0%;font-family:sans-serif;letter-spacing:-0.494182px;word-spacing:0px;display:inline;fill:#000000;fill-opacity:1;stroke:none;stroke-width:0.0171874px;stroke-linecap:butt;stroke-linejoin:miter;stroke-opacity:1"
         d="m 2.9286765,3.2450498 q 0,0.1626578 -0.081958,0.2894353 -0.081958,0.1255813 -0.2363711,0.1961461 -0.1544132,0.069369 -0.362277,0.069369 -0.1734178,0 -0.2910094,-0.02392 Q 1.8394699,3.7509642 1.712376,3.6899672 V 3.2689701 q 0.1342207,0.069369 0.2791314,0.1088372 0.1449108,0.038273 0.2660658,0.038273 0.1045258,0 0.1532254,-0.035881 0.048699,-0.037076 0.048699,-0.094485 0,-0.035881 -0.020193,-0.062193 Q 2.420301,3.1960133 2.376352,3.1685053 2.3335912,3.1409967 2.1459201,3.0560797 1.9760657,2.9783389 1.8905445,2.9053821 1.8062108,2.8324253 1.7646384,2.7379403 1.7242536,2.6434552 1.7242536,2.5142858 q 0,-0.2415947 0.1746056,-0.3767442 0.1746057,-0.1351495 0.4798687,-0.1351495 0.2696291,0 0.5499483,0.1255814 L 2.784953,2.4927575 Q 2.5414553,2.3803323 2.3644741,2.3803323 q -0.09146,0 -0.1330329,0.032292 -0.041573,0.032292 -0.041573,0.080133 0,0.051429 0.052263,0.092093 0.05345,0.040665 0.287446,0.1483056 0.2244929,0.1016612 0.3112018,0.2188705 0.087897,0.1160132 0.087897,0.2930234 z" />
      <path
         id="path353-9"
         style="font-style:normal;font-weight:normal;font-size:0.527067px;line-height:0%;font-family:sans-serif;letter-spacing:-0.229419px;word-spacing:0px;display:inline;fill:#000000;fill-opacity:1;stroke:none;stroke-width:0.0171874px;stroke-linecap:butt;stroke-linejoin:miter;stroke-opacity:1"
         sodipodi:type="inkscape:offset"
         inkscape:radius="0"
         inkscape:original="M 3.0058594 2.0273438 L 3.0058594 3.7753906 L 3.4785156 3.7753906 L 3.4785156 3.1914062 L 3.6171875 3.1074219 L 3.9609375 3.7753906 L 4.4902344 3.7753906 L 3.953125 2.8105469 L 4.5 2.0273438 L 3.9863281 2.0273438 L 3.6210938 2.5625 C 3.5490343 2.6645598 3.5022716 2.7400662 3.4785156 2.7871094 L 3.4785156 2.0273438 L 3.0058594 2.0273438 z "
         d="M 3.0058594,2.0273438 V 3.7753906 H 3.4785156 V 3.1914062 l 0.1386719,-0.083984 0.34375,0.6679687 H 4.4902344 L 3.953125,2.8105469 4.5,2.0273438 H 3.9863281 L 3.6210938,2.5625 C 3.5490343,2.6645598 3.5022716,2.7400662 3.4785156,2.7871094 V 2.0273438 Z" />
      <path
         id="path355-1"
         style="font-style:normal;font-weight:normal;font-size:0.527067px;line-height:0%;font-family:sans-serif;letter-spacing:-0.39507px;word-spacing:0px;display:inline;fill:#000000;fill-opacity:1;stroke:none;stroke-width:0.0171874px;stroke-linecap:butt;stroke-linejoin:miter;stroke-opacity:1"
         d="M 4.589727,3.7760797 V 2.0275084 h 0.4715541 v 1.7485713 z" />
      <path
         id="path357-7"
         style="font-style:normal;font-weight:normal;font-size:0.527067px;line-height:0%;font-family:sans-serif;letter-spacing:-0.564189px;word-spacing:0px;display:inline;fill:#000000;fill-opacity:1;stroke:none;stroke-width:0.0171874px;stroke-linecap:butt;stroke-linejoin:miter;stroke-opacity:1"
         sodipodi:type="inkscape:offset"
         inkscape:radius="0"
         inkscape:original="M 5.1542969 2.0273438 L 5.1542969 2.4140625 L 5.578125 2.4140625 L 5.578125 3.7753906 L 6.046875 3.7753906 L 6.046875 2.4140625 L 6.4707031 2.4140625 L 6.4707031 2.0273438 L 5.1542969 2.0273438 z "
         d="M 5.1542969,2.0273438 V 2.4140625 H 5.578125 v 1.3613281 h 0.46875 V 2.4140625 H 6.4707031 V 2.0273438 Z" />
      <path
         id="path359-5"
         style="font-style:normal;font-weight:normal;font-size:0.527067px;line-height:0%;font-family:sans-serif;letter-spacing:-0.634195px;word-spacing:0px;display:inline;fill:#000000;fill-opacity:1;stroke:none;stroke-width:0.0171874px;stroke-linecap:butt;stroke-linejoin:miter;stroke-opacity:1"
         d="m 8.1258656,2.899402 q 0,0.4413289 -0.2149906,0.6709634 Q 7.6958839,3.8 7.2813449,3.8 6.8727431,3.8 6.6541894,3.5691694 6.436823,3.3383389 6.436823,2.89701 q 0,-0.4365449 0.2161787,-0.6661794 Q 6.8703682,2 7.2837198,2 7.6982596,2 7.9120626,2.2284386 8.1258656,2.4568771 8.1258656,2.899402 Z m -1.1949202,0 q 0,0.5071096 0.3503995,0.5071096 0.1781686,0 0.2636898,-0.1231893 0.086709,-0.1231894 0.086709,-0.3839203 0,-0.2619268 -0.087897,-0.3863123 -0.086709,-0.1255814 -0.2601265,-0.1255814 -0.3527752,0 -0.3527748,0.5118937 z" />
      <path
         id="path361-5"
         style="font-style:normal;font-weight:normal;font-size:0.527067px;line-height:0%;font-family:sans-serif;letter-spacing:-0.756181px;word-spacing:0px;display:inline;fill:#000000;fill-opacity:1;stroke:none;stroke-width:0.0171874px;stroke-linecap:butt;stroke-linejoin:miter;stroke-opacity:1"
         d="M 9.8455372,3.7760797 H 9.2302599 L 8.5959789,2.5441861 h -0.010687 q 0.022567,0.2906312 0.022567,0.4437209 V 3.7760797 H 8.1921288 V 2.0275084 h 0.6129016 l 0.6319057,1.2151494 h 0.00713 Q 9.4274357,2.9783389 9.4274357,2.8180732 V 2.0275084 h 0.4181034 z" />
      <path
         id="path363-4"
         style="font-style:normal;font-variant:normal;font-weight:800;font-stretch:normal;font-size:6.23799px;line-height:1.25;font-family:'Open Sans';-inkscape-font-specification:'Open Sans Ultra-Bold';letter-spacing:-0.376357px;word-spacing:0px;display:inline;fill:#000000;fill-opacity:1;stroke:none;stroke-width:0.0171874px;stroke-linecap:butt;stroke-linejoin:miter;stroke-opacity:1"
         d="M 10.957,3.7760797 H 9.9259956 V 2.0275084 H 10.957 v 0.3791361 h -0.561827 v 0.2750831 h 0.520254 V 3.0608638 H 10.395173 V 3.3909635 H 10.957 Z" />
    </g>
    <g
       id="g16078"
       transform="scale(18.340513)">
      <path
         id="path349-8"
         style="font-style:normal;font-weight:normal;font-size:0.527067px;line-height:0%;font-family:sans-serif;letter-spacing:-0.53716px;word-spacing:0px;display:inline;fill:#000000;fill-opacity:1;stroke:none;stroke-width:0.0171874px;stroke-linecap:butt;stroke-linejoin:miter;stroke-opacity:1"
         d="m 1.6890422,4.899402 q 0,0.4413289 -0.2149905,0.6709634 Q 1.2590611,5.8 0.84452117,5.8 0.43592024,5.8 0.21736624,5.5691694 0,5.3383389 0,4.89701 0,4.4604651 0.21617839,4.2308306 0.43354463,4 0.84689678,4 1.2614367,4 1.4752395,4.2284385 1.6890422,4.456877 1.6890422,4.899402 Z m -1.19492011,0 q 0,0.5071096 0.35039908,0.5071096 0.17816903,0 0.26369013,-0.1231893 0.086709,-0.1231894 0.086709,-0.3839203 0,-0.2619269 -0.087897,-0.3863123 -0.086709,-0.1255814 -0.26012652,-0.1255814 -0.35277469,0 -0.35277469,0.5118937 z" />
      <path
         id="path351-7"
         style="font-style:normal;font-weight:normal;font-size:0.527067px;line-height:0%;font-family:sans-serif;letter-spacing:-0.494182px;word-spacing:0px;display:inline;fill:#000000;fill-opacity:1;stroke:none;stroke-width:0.0171874px;stroke-linecap:butt;stroke-linejoin:miter;stroke-opacity:1"
         d="m 2.9286765,5.2450498 q 0,0.1626578 -0.081958,0.2894353 -0.081958,0.1255813 -0.2363711,0.1961461 -0.1544132,0.069369 -0.362277,0.069369 -0.1734178,0 -0.2910094,-0.02392 Q 1.8394699,5.7509642 1.712376,5.6899672 V 5.2689701 q 0.1342207,0.069369 0.2791314,0.1088372 0.1449108,0.038273 0.2660658,0.038273 0.1045258,0 0.1532253,-0.035881 0.048699,-0.037076 0.048699,-0.094485 0,-0.035881 -0.020193,-0.062193 Q 2.4203009,5.1960133 2.376353,5.1685053 2.3335921,5.1409973 2.1459211,5.05608 1.9760666,4.978339 1.8905455,4.9053823 1.8062118,4.8324253 1.7646394,4.7379405 1.7242546,4.6434555 1.7242546,4.514286 q 0,-0.2415947 0.1746056,-0.3767442 0.1746057,-0.1351495 0.4798686,-0.1351495 0.2696292,0 0.5499484,0.1255814 L 2.784954,4.4927578 Q 2.5414563,4.3803325 2.3644751,4.3803325 q -0.09146,0 -0.1330329,0.032292 -0.041573,0.032292 -0.041573,0.080133 0,0.051429 0.052263,0.092093 0.05345,0.040665 0.287446,0.1483057 0.224493,0.1016611 0.3112019,0.2188704 0.087897,0.1160133 0.087896,0.2930232 z" />
      <path
         id="path353-8"
         style="font-style:normal;font-weight:normal;font-size:0.527067px;line-height:0%;font-family:sans-serif;letter-spacing:-0.229419px;word-spacing:0px;display:inline;fill:#000000;fill-opacity:1;stroke:none;stroke-width:0.0171874px;stroke-linecap:butt;stroke-linejoin:miter;stroke-opacity:1"
         d="M 4.4903334,5.7760797 H 3.9605774 L 3.6173053,5.1075083 3.4783334,5.1912293 V 5.7760797 H 3.0067794 V 4.0275083 h 0.471554 V 4.7869768 Q 3.513967,4.7164118 3.6220564,4.5633223 L 3.986709,4.0275083 H 4.4998358 L 3.952263,4.810897 Z" />
      <path
         id="path355-7"
         style="font-style:normal;font-weight:normal;font-size:0.527067px;line-height:0%;font-family:sans-serif;letter-spacing:-0.39507px;word-spacing:0px;display:inline;fill:#000000;fill-opacity:1;stroke:none;stroke-width:0.0171874px;stroke-linecap:butt;stroke-linejoin:miter;stroke-opacity:1"
         d="M 4.589727,5.7760797 V 4.0275083 h 0.4715541 v 1.7485714 z" />
      <path
         id="path357-74"
         style="font-style:normal;font-weight:normal;font-size:0.527067px;line-height:0%;font-family:sans-serif;letter-spacing:-0.564189px;word-spacing:0px;display:inline;fill:#000000;fill-opacity:1;stroke:none;stroke-width:0.0171874px;stroke-linecap:butt;stroke-linejoin:miter;stroke-opacity:1"
         d="M 6.0474991,5.7760797 H 5.5783208 V 4.4138206 H 5.1542782 V 4.0275083 h 1.316075 V 4.4138206 H 6.0474991 Z" />
      <path
         id="path359-4"
         style="font-style:normal;font-weight:normal;font-size:0.527067px;line-height:0%;font-family:sans-serif;letter-spacing:-0.634195px;word-spacing:0px;display:inline;fill:#000000;fill-opacity:1;stroke:none;stroke-width:0.0171874px;stroke-linecap:butt;stroke-linejoin:miter;stroke-opacity:1"
         d="m 8.1258654,4.899402 q 0,0.4413289 -0.2149906,0.6709634 Q 7.6958837,5.8 7.2813447,5.8 6.8727429,5.8 6.6541893,5.5691694 6.436823,5.3383389 6.436823,4.89701 q 0,-0.4365449 0.2161787,-0.6661794 Q 6.870368,4 7.2837196,4 7.6982594,4 7.9120624,4.2284385 8.1258654,4.456877 8.1258654,4.899402 Z m -1.1949201,0 q 0,0.5071096 0.3503994,0.5071096 0.1781686,0 0.2636898,-0.1231893 0.086709,-0.1231894 0.086709,-0.3839203 0,-0.2619269 -0.087897,-0.3863123 Q 7.4571377,4.3875083 7.28372,4.3875083 q -0.3527751,0 -0.3527747,0.5118937 z" />
      <path
         id="path361-9"
         style="font-style:normal;font-weight:normal;font-size:0.527067px;line-height:0%;font-family:sans-serif;letter-spacing:-0.756181px;word-spacing:0px;display:inline;fill:#000000;fill-opacity:1;stroke:none;stroke-width:0.0171874px;stroke-linecap:butt;stroke-linejoin:miter;stroke-opacity:1"
         d="M 9.845537,5.7760797 H 9.2302597 L 8.5959787,4.5441861 h -0.010687 q 0.022567,0.2906312 0.022567,0.4437209 V 5.7760797 H 8.1921286 V 4.0275083 h 0.6129016 l 0.6319057,1.2151495 h 0.00713 Q 9.4274355,4.9783389 9.4274355,4.8180731 V 4.0275083 h 0.4181034 z" />
      <path
         id="path363-1"
         style="font-style:normal;font-variant:normal;font-weight:800;font-stretch:normal;font-size:6.23799px;line-height:1.25;font-family:'Open Sans';-inkscape-font-specification:'Open Sans Ultra-Bold';letter-spacing:-0.376357px;word-spacing:0px;display:inline;fill:#000000;fill-opacity:1;stroke:none;stroke-width:0.0171874px;stroke-linecap:butt;stroke-linejoin:miter;stroke-opacity:1"
         d="M 10.957,5.7760797 H 9.9259953 V 4.0275083 H 10.957 v 0.3791362 h -0.561827 v 0.2750831 h 0.520254 V 5.0608638 H 10.395173 V 5.3909635 H 10.957 Z" />
    </g>
    <g
       id="g16068"
       transform="scale(18.340513)">
      <path
         id="path349-2"
         style="font-style:normal;font-weight:normal;font-size:0.527067px;line-height:0%;font-family:sans-serif;letter-spacing:-0.53716px;word-spacing:0px;display:inline;fill:#000000;fill-opacity:1;stroke:none;stroke-width:0.017187px;stroke-linecap:butt;stroke-linejoin:miter;stroke-opacity:1"
         d="m 1.6889681,6.899402 q 0,0.4413289 -0.2149811,0.6709634 Q 1.2590058,7.8 0.84448409,7.8 0.43590107,7.8 0.21735668,7.5691694 0,7.3383389 0,6.89701 0,6.4604651 0.21616892,6.2308306 0.43352559,6 0.84685957,6 1.2613813,6 1.4751747,6.2284385 1.6889681,6.456877 1.6889681,6.899402 Z m -1.19486774,0 q 0,0.5071096 0.35038373,0.5071096 0.17816121,0 0.26367861,-0.1231893 0.086705,-0.1231894 0.086705,-0.3839203 0,-0.2619269 -0.087893,-0.3863123 -0.086705,-0.1255814 -0.26011519,-0.1255814 -0.3527592,0 -0.35275915,0.5118937 z" />
      <path
         id="path351-5"
         style="font-style:normal;font-weight:normal;font-size:0.527067px;line-height:0%;font-family:sans-serif;letter-spacing:-0.494182px;word-spacing:0px;display:inline;fill:#000000;fill-opacity:1;stroke:none;stroke-width:0.017187px;stroke-linecap:butt;stroke-linejoin:miter;stroke-opacity:1"
         d="m 2.9285478,7.2450498 q 0,0.1626577 -0.081955,0.2894353 Q 2.7646401,7.6600663 2.6102325,7.7306312 2.4558259,7.8 2.2479714,7.8 2.0745608,7.8 1.9569747,7.7760795 1.8393883,7.7509634 1.7123001,7.6899668 V 7.2689701 q 0.1342148,0.069369 0.2791191,0.1088371 0.1449037,0.038273 0.2660541,0.038273 0.1045215,0 0.1532178,-0.035881 0.048696,-0.037076 0.048696,-0.094485 0,-0.035881 -0.020191,-0.062193 Q 2.4201948,7.1960133 2.3762487,7.1685053 2.3334896,7.1409973 2.1458269,7.05608 1.9759799,6.978339 1.8904625,6.9053823 1.8061325,6.8324253 1.7645619,6.7379405 1.7241789,6.6434555 1.7241789,6.514286 q 0,-0.2415947 0.1745979,-0.3767442 0.174598,-0.1351495 0.4798476,-0.1351495 0.2696173,0 0.5499242,0.1255814 L 2.7848317,6.4927578 Q 2.5413446,6.3803325 2.3643713,6.3803325 q -0.091456,0 -0.1330268,0.032292 -0.041571,0.032292 -0.041571,0.080133 0,0.051429 0.052261,0.092093 0.053448,0.040665 0.2874335,0.1483058 0.2244831,0.1016611 0.3111882,0.2188704 0.087893,0.1160133 0.087892,0.2930231 z" />
      <path
         id="path353-2"
         style="font-style:normal;font-weight:normal;font-size:0.527067px;line-height:0%;font-family:sans-serif;letter-spacing:-0.229419px;word-spacing:0px;display:inline;fill:#000000;fill-opacity:1;stroke:none;stroke-width:0.017187px;stroke-linecap:butt;stroke-linejoin:miter;stroke-opacity:1"
         d="M 4.4901363,7.7760797 H 3.9604034 L 3.6171464,7.1075083 3.4781812,7.1912292 V 7.7760796 H 3.0066474 V 6.0275083 H 3.4781807 V 6.7869768 Q 3.5138126,6.7164118 3.6218973,6.5633223 L 3.9865339,6.0275083 H 4.4996383 L 3.9520894,6.810897 Z" />
      <path
         id="path355-2"
         style="font-style:normal;font-weight:normal;font-size:0.527067px;line-height:0%;font-family:sans-serif;letter-spacing:-0.39507px;word-spacing:0px;display:inline;fill:#000000;fill-opacity:1;stroke:none;stroke-width:0.017187px;stroke-linecap:butt;stroke-linejoin:miter;stroke-opacity:1"
         d="M 4.5895254,7.7760797 V 6.0275083 h 0.4715333 v 1.7485714 z" />
      <path
         id="path357-71"
         style="font-style:normal;font-weight:normal;font-size:0.527067px;line-height:0%;font-family:sans-serif;letter-spacing:-0.564189px;word-spacing:0px;display:inline;fill:#000000;fill-opacity:1;stroke:none;stroke-width:0.017187px;stroke-linecap:butt;stroke-linejoin:miter;stroke-opacity:1"
         d="M 6.0472335,7.7760797 H 5.5780759 V 6.4138206 H 5.1540518 V 6.0275083 H 6.4700691 V 6.4138206 H 6.0472335 Z" />
      <path
         id="path359-52"
         style="font-style:normal;font-weight:normal;font-size:0.527067px;line-height:0%;font-family:sans-serif;letter-spacing:-0.634195px;word-spacing:0px;display:inline;fill:#000000;fill-opacity:1;stroke:none;stroke-width:0.017187px;stroke-linecap:butt;stroke-linejoin:miter;stroke-opacity:1"
         d="m 8.1255085,6.899402 q 0,0.4413289 -0.2149811,0.6709634 Q 7.6955459,7.8 7.281025,7.8 6.872441,7.8 6.653897,7.5691694 6.4365403,7.3383389 6.4365403,6.89701 q 0,-0.4365449 0.2161692,-0.6661794 Q 6.8700662,6 7.2833998,6 7.6979214,6 7.9117151,6.2284385 8.1255085,6.456877 8.1255085,6.899402 Z m -1.1948675,0 q 0,0.5071096 0.350384,0.5071096 0.1781603,0 0.2636783,-0.1231893 0.086704,-0.1231894 0.086704,-0.3839203 0,-0.2619269 -0.087893,-0.3863123 -0.086704,-0.1255814 -0.2601149,-0.1255814 -0.3527597,0 -0.3527584,0.5118937 z" />
      <path
         id="path361-1"
         style="font-style:normal;font-weight:normal;font-size:0.527067px;line-height:0%;font-family:sans-serif;letter-spacing:-0.756181px;word-spacing:0px;display:inline;fill:#000000;fill-opacity:1;stroke:none;stroke-width:0.017187px;stroke-linecap:butt;stroke-linejoin:miter;stroke-opacity:1"
         d="M 9.8451046,7.7760797 H 9.2298544 L 8.5956013,6.5441861 h -0.010683 q 0.022567,0.2906312 0.022567,0.4437209 V 7.7760797 H 8.1917688 V 6.0275083 h 0.6128748 l 0.6318778,1.2151495 h 0.00712 Q 9.4270075,6.9783389 9.4270075,6.8180731 V 6.0275083 h 0.418085 z" />
      <path
         id="path363-10"
         style="font-style:normal;font-variant:normal;font-weight:800;font-stretch:normal;font-size:6.23799px;line-height:1.25;font-family:'Open Sans';-inkscape-font-specification:'Open Sans Ultra-Bold';letter-spacing:-0.376357px;word-spacing:0px;display:inline;fill:#000000;fill-opacity:1;stroke:none;stroke-width:0.017187px;stroke-linecap:butt;stroke-linejoin:miter;stroke-opacity:1"
         d="M 10.956519,7.7760797 H 9.9255594 V 6.0275083 h 1.0309596 v 0.3791362 h -0.561802 v 0.2750831 h 0.520231 v 0.3791362 h -0.520231 v 0.3300997 h 0.561802 z" />
    </g>
  </g>
</svg>
