<?xml version="1.0" standalone="no"?>
 <!DOCTYPE svg PUBLIC "-//W3C//DTD SVG 1.1//EN" 
 "http://www.w3.org/Graphics/SVG/1.1/DTD/svg11.dtd"> 
<svg
  xmlns:svg="http://www.w3.org/2000/svg"
  xmlns="http://www.w3.org/2000/svg"
  xmlns:xlink="http://www.w3.org/1999/xlink"
  version="1.1"
  width="29.700220cm" height="21.000720cm" viewBox="0 0 116930 82680">
<title>SVG Picture created as 555_astable-Sheet60F4E92A.svg date 2020/12/03 21:06:11 </title>
  <desc>Picture generated by Eeschema-SVG </desc>
<g style="fill:#000000; fill-opacity:1;stroke:#000000; stroke-opacity:1;
stroke-linecap:round; stroke-linejoin:round;"
 transform="translate(0 0) scale(1 1)">
</g>
<g style="fill:#000000; fill-opacity:0.0; 
stroke:#000000; stroke-width:-10; stroke-opacity:1; 
stroke-linecap:round; stroke-linejoin:round;">
</g>
<g style="fill:#FF00E3; fill-opacity:0.0; 
stroke:#FF00E3; stroke-width:-10; stroke-opacity:1; 
stroke-linecap:round; stroke-linejoin:round;">
</g>
<g style="fill:#FF00E3; fill-opacity:0.0; 
stroke:#FF00E3; stroke-width:100; stroke-opacity:1; 
stroke-linecap:round; stroke-linejoin:round;">
</g>
<g style="fill:#FF00E3; fill-opacity:0.0; 
stroke:#FF00E3; stroke-width:60; stroke-opacity:1; 
stroke-linecap:round; stroke-linejoin:round;">
<rect x="69690" y="65360" width="42520" height="12600" rx="0" />
</g>
<g style="fill:#FF00E3; fill-opacity:0.0; 
stroke:#FF00E3; stroke-width:100; stroke-opacity:1; 
stroke-linecap:round; stroke-linejoin:round;">
</g>
<g style="fill:#FF00E3; fill-opacity:0.0; 
stroke:#FF00E3; stroke-width:60; stroke-opacity:1; 
stroke-linecap:round; stroke-linejoin:round;">
<rect x="3940" y="3940" width="109050" height="74800" rx="0" />
</g>
<g style="fill:#FF00E3; fill-opacity:0.0; 
stroke:#FF00E3; stroke-width:100; stroke-opacity:1; 
stroke-linecap:round; stroke-linejoin:round;">
</g>
<g style="fill:#FF00E3; fill-opacity:0.0; 
stroke:#FF00E3; stroke-width:60; stroke-opacity:1; 
stroke-linecap:round; stroke-linejoin:round;">
<rect x="4720" y="4720" width="107490" height="73240" rx="0" />
</g>
<g style="fill:#FF00E3; fill-opacity:0.0; 
stroke:#FF00E3; stroke-width:100; stroke-opacity:1; 
stroke-linecap:round; stroke-linejoin:round;">
</g>
<g style="fill:#FF00E3; fill-opacity:0.0; 
stroke:#FF00E3; stroke-width:60; stroke-opacity:1; 
stroke-linecap:round; stroke-linejoin:round;">
<path d="M23620 4720
L23620 3940
" />
</g>
<g style="fill:#FF00E3; fill-opacity:0.0; 
stroke:#FF00E3; stroke-width:100; stroke-opacity:1; 
stroke-linecap:round; stroke-linejoin:round;">
</g>
<g style="fill:#FF00E3; fill-opacity:0.0; 
stroke:#FF00E3; stroke-width:60; stroke-opacity:1; 
stroke-linecap:round; stroke-linejoin:round;">
<path d="M43310 4720
L43310 3940
" />
</g>
<g style="fill:#FF00E3; fill-opacity:0.0; 
stroke:#FF00E3; stroke-width:100; stroke-opacity:1; 
stroke-linecap:round; stroke-linejoin:round;">
</g>
<g style="fill:#FF00E3; fill-opacity:0.0; 
stroke:#FF00E3; stroke-width:60; stroke-opacity:1; 
stroke-linecap:round; stroke-linejoin:round;">
<path d="M62990 4720
L62990 3940
" />
</g>
<g style="fill:#FF00E3; fill-opacity:0.0; 
stroke:#FF00E3; stroke-width:100; stroke-opacity:1; 
stroke-linecap:round; stroke-linejoin:round;">
</g>
<g style="fill:#FF00E3; fill-opacity:0.0; 
stroke:#FF00E3; stroke-width:60; stroke-opacity:1; 
stroke-linecap:round; stroke-linejoin:round;">
<path d="M82680 4720
L82680 3940
" />
</g>
<g style="fill:#FF00E3; fill-opacity:0.0; 
stroke:#FF00E3; stroke-width:100; stroke-opacity:1; 
stroke-linecap:round; stroke-linejoin:round;">
</g>
<g style="fill:#FF00E3; fill-opacity:0.0; 
stroke:#FF00E3; stroke-width:60; stroke-opacity:1; 
stroke-linecap:round; stroke-linejoin:round;">
<path d="M102360 4720
L102360 3940
" />
</g>
<g style="fill:#FF00E3; fill-opacity:0.0; 
stroke:#FF00E3; stroke-width:100; stroke-opacity:1; 
stroke-linecap:round; stroke-linejoin:round;">
</g>
<g style="fill:#FF00E3; fill-opacity:0.0; 
stroke:#FF00E3; stroke-width:60; stroke-opacity:1; 
stroke-linecap:round; stroke-linejoin:round;">
<text x="13780" y="4580"
textLength="550" font-size="680" lengthAdjust="spacingAndGlyphs"
text-anchor="start" opacity="0">1</text>
<path d="M14190 4560
L13900 4560
" />
<path d="M14050 4560
L14050 4050
L14000 4120
L13950 4170
L13900 4190
" />
</g>
<g style="fill:#FF00E3; fill-opacity:0.0; 
stroke:#FF00E3; stroke-width:100; stroke-opacity:1; 
stroke-linecap:round; stroke-linejoin:round;">
</g>
<g style="fill:#FF00E3; fill-opacity:0.0; 
stroke:#FF00E3; stroke-width:60; stroke-opacity:1; 
stroke-linecap:round; stroke-linejoin:round;">
<text x="33460" y="4580"
textLength="550" font-size="680" lengthAdjust="spacingAndGlyphs"
text-anchor="start" opacity="0">2</text>
<path d="M33580 4090
L33610 4070
L33660 4050
L33780 4050
L33830 4070
L33850 4090
L33870 4140
L33870 4190
L33850 4260
L33560 4560
L33870 4560
" />
</g>
<g style="fill:#FF00E3; fill-opacity:0.0; 
stroke:#FF00E3; stroke-width:100; stroke-opacity:1; 
stroke-linecap:round; stroke-linejoin:round;">
</g>
<g style="fill:#FF00E3; fill-opacity:0.0; 
stroke:#FF00E3; stroke-width:60; stroke-opacity:1; 
stroke-linecap:round; stroke-linejoin:round;">
<text x="53150" y="4580"
textLength="550" font-size="680" lengthAdjust="spacingAndGlyphs"
text-anchor="start" opacity="0">3</text>
<path d="M53250 4050
L53560 4050
L53390 4240
L53470 4240
L53520 4260
L53540 4290
L53560 4340
L53560 4460
L53540 4510
L53520 4530
L53470 4560
L53320 4560
L53270 4530
L53250 4510
" />
</g>
<g style="fill:#FF00E3; fill-opacity:0.0; 
stroke:#FF00E3; stroke-width:100; stroke-opacity:1; 
stroke-linecap:round; stroke-linejoin:round;">
</g>
<g style="fill:#FF00E3; fill-opacity:0.0; 
stroke:#FF00E3; stroke-width:60; stroke-opacity:1; 
stroke-linecap:round; stroke-linejoin:round;">
<text x="72830" y="4580"
textLength="550" font-size="680" lengthAdjust="spacingAndGlyphs"
text-anchor="start" opacity="0">4</text>
<path d="M73200 4220
L73200 4560
" />
<path d="M73070 4020
L72950 4390
L73270 4390
" />
</g>
<g style="fill:#FF00E3; fill-opacity:0.0; 
stroke:#FF00E3; stroke-width:100; stroke-opacity:1; 
stroke-linecap:round; stroke-linejoin:round;">
</g>
<g style="fill:#FF00E3; fill-opacity:0.0; 
stroke:#FF00E3; stroke-width:60; stroke-opacity:1; 
stroke-linecap:round; stroke-linejoin:round;">
<text x="92520" y="4580"
textLength="550" font-size="680" lengthAdjust="spacingAndGlyphs"
text-anchor="start" opacity="0">5</text>
<path d="M92910 4050
L92670 4050
L92640 4290
L92670 4260
L92720 4240
L92840 4240
L92890 4260
L92910 4290
L92930 4340
L92930 4460
L92910 4510
L92890 4530
L92840 4560
L92720 4560
L92670 4530
L92640 4510
" />
</g>
<g style="fill:#FF00E3; fill-opacity:0.0; 
stroke:#FF00E3; stroke-width:100; stroke-opacity:1; 
stroke-linecap:round; stroke-linejoin:round;">
</g>
<g style="fill:#FF00E3; fill-opacity:0.0; 
stroke:#FF00E3; stroke-width:60; stroke-opacity:1; 
stroke-linecap:round; stroke-linejoin:round;">
<text x="112200" y="4580"
textLength="550" font-size="680" lengthAdjust="spacingAndGlyphs"
text-anchor="start" opacity="0">6</text>
<path d="M112570 4050
L112470 4050
L112420 4070
L112400 4090
L112350 4170
L112320 4260
L112320 4460
L112350 4510
L112370 4530
L112420 4560
L112520 4560
L112570 4530
L112590 4510
L112610 4460
L112610 4340
L112590 4290
L112570 4260
L112520 4240
L112420 4240
L112370 4260
L112350 4290
L112320 4340
" />
</g>
<g style="fill:#FF00E3; fill-opacity:0.0; 
stroke:#FF00E3; stroke-width:100; stroke-opacity:1; 
stroke-linecap:round; stroke-linejoin:round;">
</g>
<g style="fill:#FF00E3; fill-opacity:0.0; 
stroke:#FF00E3; stroke-width:60; stroke-opacity:1; 
stroke-linecap:round; stroke-linejoin:round;">
<path d="M23620 77960
L23620 78740
" />
</g>
<g style="fill:#FF00E3; fill-opacity:0.0; 
stroke:#FF00E3; stroke-width:100; stroke-opacity:1; 
stroke-linecap:round; stroke-linejoin:round;">
</g>
<g style="fill:#FF00E3; fill-opacity:0.0; 
stroke:#FF00E3; stroke-width:60; stroke-opacity:1; 
stroke-linecap:round; stroke-linejoin:round;">
<path d="M43310 77960
L43310 78740
" />
</g>
<g style="fill:#FF00E3; fill-opacity:0.0; 
stroke:#FF00E3; stroke-width:100; stroke-opacity:1; 
stroke-linecap:round; stroke-linejoin:round;">
</g>
<g style="fill:#FF00E3; fill-opacity:0.0; 
stroke:#FF00E3; stroke-width:60; stroke-opacity:1; 
stroke-linecap:round; stroke-linejoin:round;">
<path d="M62990 77960
L62990 78740
" />
</g>
<g style="fill:#FF00E3; fill-opacity:0.0; 
stroke:#FF00E3; stroke-width:100; stroke-opacity:1; 
stroke-linecap:round; stroke-linejoin:round;">
</g>
<g style="fill:#FF00E3; fill-opacity:0.0; 
stroke:#FF00E3; stroke-width:60; stroke-opacity:1; 
stroke-linecap:round; stroke-linejoin:round;">
<path d="M82680 77960
L82680 78740
" />
</g>
<g style="fill:#FF00E3; fill-opacity:0.0; 
stroke:#FF00E3; stroke-width:100; stroke-opacity:1; 
stroke-linecap:round; stroke-linejoin:round;">
</g>
<g style="fill:#FF00E3; fill-opacity:0.0; 
stroke:#FF00E3; stroke-width:60; stroke-opacity:1; 
stroke-linecap:round; stroke-linejoin:round;">
<path d="M102360 77960
L102360 78740
" />
</g>
<g style="fill:#FF00E3; fill-opacity:0.0; 
stroke:#FF00E3; stroke-width:100; stroke-opacity:1; 
stroke-linecap:round; stroke-linejoin:round;">
</g>
<g style="fill:#FF00E3; fill-opacity:0.0; 
stroke:#FF00E3; stroke-width:60; stroke-opacity:1; 
stroke-linecap:round; stroke-linejoin:round;">
<text x="13780" y="78600"
textLength="550" font-size="680" lengthAdjust="spacingAndGlyphs"
text-anchor="start" opacity="0">1</text>
<path d="M14190 78580
L13900 78580
" />
<path d="M14050 78580
L14050 78070
L14000 78140
L13950 78190
L13900 78210
" />
</g>
<g style="fill:#FF00E3; fill-opacity:0.0; 
stroke:#FF00E3; stroke-width:100; stroke-opacity:1; 
stroke-linecap:round; stroke-linejoin:round;">
</g>
<g style="fill:#FF00E3; fill-opacity:0.0; 
stroke:#FF00E3; stroke-width:60; stroke-opacity:1; 
stroke-linecap:round; stroke-linejoin:round;">
<text x="33460" y="78600"
textLength="550" font-size="680" lengthAdjust="spacingAndGlyphs"
text-anchor="start" opacity="0">2</text>
<path d="M33580 78110
L33610 78090
L33660 78070
L33780 78070
L33830 78090
L33850 78110
L33870 78160
L33870 78210
L33850 78280
L33560 78580
L33870 78580
" />
</g>
<g style="fill:#FF00E3; fill-opacity:0.0; 
stroke:#FF00E3; stroke-width:100; stroke-opacity:1; 
stroke-linecap:round; stroke-linejoin:round;">
</g>
<g style="fill:#FF00E3; fill-opacity:0.0; 
stroke:#FF00E3; stroke-width:60; stroke-opacity:1; 
stroke-linecap:round; stroke-linejoin:round;">
<text x="53150" y="78600"
textLength="550" font-size="680" lengthAdjust="spacingAndGlyphs"
text-anchor="start" opacity="0">3</text>
<path d="M53250 78070
L53560 78070
L53390 78260
L53470 78260
L53520 78280
L53540 78310
L53560 78360
L53560 78480
L53540 78530
L53520 78550
L53470 78580
L53320 78580
L53270 78550
L53250 78530
" />
</g>
<g style="fill:#FF00E3; fill-opacity:0.0; 
stroke:#FF00E3; stroke-width:100; stroke-opacity:1; 
stroke-linecap:round; stroke-linejoin:round;">
</g>
<g style="fill:#FF00E3; fill-opacity:0.0; 
stroke:#FF00E3; stroke-width:60; stroke-opacity:1; 
stroke-linecap:round; stroke-linejoin:round;">
<text x="72830" y="78600"
textLength="550" font-size="680" lengthAdjust="spacingAndGlyphs"
text-anchor="start" opacity="0">4</text>
<path d="M73200 78240
L73200 78580
" />
<path d="M73070 78040
L72950 78410
L73270 78410
" />
</g>
<g style="fill:#FF00E3; fill-opacity:0.0; 
stroke:#FF00E3; stroke-width:100; stroke-opacity:1; 
stroke-linecap:round; stroke-linejoin:round;">
</g>
<g style="fill:#FF00E3; fill-opacity:0.0; 
stroke:#FF00E3; stroke-width:60; stroke-opacity:1; 
stroke-linecap:round; stroke-linejoin:round;">
<text x="92520" y="78600"
textLength="550" font-size="680" lengthAdjust="spacingAndGlyphs"
text-anchor="start" opacity="0">5</text>
<path d="M92910 78070
L92670 78070
L92640 78310
L92670 78280
L92720 78260
L92840 78260
L92890 78280
L92910 78310
L92930 78360
L92930 78480
L92910 78530
L92890 78550
L92840 78580
L92720 78580
L92670 78550
L92640 78530
" />
</g>
<g style="fill:#FF00E3; fill-opacity:0.0; 
stroke:#FF00E3; stroke-width:100; stroke-opacity:1; 
stroke-linecap:round; stroke-linejoin:round;">
</g>
<g style="fill:#FF00E3; fill-opacity:0.0; 
stroke:#FF00E3; stroke-width:60; stroke-opacity:1; 
stroke-linecap:round; stroke-linejoin:round;">
<text x="112200" y="78600"
textLength="550" font-size="680" lengthAdjust="spacingAndGlyphs"
text-anchor="start" opacity="0">6</text>
<path d="M112570 78070
L112470 78070
L112420 78090
L112400 78110
L112350 78190
L112320 78280
L112320 78480
L112350 78530
L112370 78550
L112420 78580
L112520 78580
L112570 78550
L112590 78530
L112610 78480
L112610 78360
L112590 78310
L112570 78280
L112520 78260
L112420 78260
L112370 78280
L112350 78310
L112320 78360
" />
</g>
<g style="fill:#FF00E3; fill-opacity:0.0; 
stroke:#FF00E3; stroke-width:100; stroke-opacity:1; 
stroke-linecap:round; stroke-linejoin:round;">
</g>
<g style="fill:#FF00E3; fill-opacity:0.0; 
stroke:#FF00E3; stroke-width:60; stroke-opacity:1; 
stroke-linecap:round; stroke-linejoin:round;">
<path d="M3940 23620
L4720 23620
" />
</g>
<g style="fill:#FF00E3; fill-opacity:0.0; 
stroke:#FF00E3; stroke-width:100; stroke-opacity:1; 
stroke-linecap:round; stroke-linejoin:round;">
</g>
<g style="fill:#FF00E3; fill-opacity:0.0; 
stroke:#FF00E3; stroke-width:60; stroke-opacity:1; 
stroke-linecap:round; stroke-linejoin:round;">
<path d="M3940 43310
L4720 43310
" />
</g>
<g style="fill:#FF00E3; fill-opacity:0.0; 
stroke:#FF00E3; stroke-width:100; stroke-opacity:1; 
stroke-linecap:round; stroke-linejoin:round;">
</g>
<g style="fill:#FF00E3; fill-opacity:0.0; 
stroke:#FF00E3; stroke-width:60; stroke-opacity:1; 
stroke-linecap:round; stroke-linejoin:round;">
<path d="M3940 62990
L4720 62990
" />
</g>
<g style="fill:#FF00E3; fill-opacity:0.0; 
stroke:#FF00E3; stroke-width:100; stroke-opacity:1; 
stroke-linecap:round; stroke-linejoin:round;">
</g>
<g style="fill:#FF00E3; fill-opacity:0.0; 
stroke:#FF00E3; stroke-width:60; stroke-opacity:1; 
stroke-linecap:round; stroke-linejoin:round;">
<text x="4330" y="14030"
textLength="500" font-size="680" lengthAdjust="spacingAndGlyphs"
text-anchor="middle" opacity="0">A</text>
<path d="M4200 13860
L4450 13860
" />
<path d="M4160 14010
L4330 13500
L4500 14010
" />
</g>
<g style="fill:#FF00E3; fill-opacity:0.0; 
stroke:#FF00E3; stroke-width:100; stroke-opacity:1; 
stroke-linecap:round; stroke-linejoin:round;">
</g>
<g style="fill:#FF00E3; fill-opacity:0.0; 
stroke:#FF00E3; stroke-width:60; stroke-opacity:1; 
stroke-linecap:round; stroke-linejoin:round;">
<text x="4330" y="33710"
textLength="570" font-size="680" lengthAdjust="spacingAndGlyphs"
text-anchor="middle" opacity="0">B</text>
<path d="M4360 33420
L4430 33440
L4460 33470
L4480 33520
L4480 33590
L4460 33640
L4430 33660
L4390 33690
L4190 33690
L4190 33180
L4360 33180
L4410 33200
L4430 33220
L4460 33270
L4460 33320
L4430 33370
L4410 33390
L4360 33420
L4190 33420
" />
</g>
<g style="fill:#FF00E3; fill-opacity:0.0; 
stroke:#FF00E3; stroke-width:100; stroke-opacity:1; 
stroke-linecap:round; stroke-linejoin:round;">
</g>
<g style="fill:#FF00E3; fill-opacity:0.0; 
stroke:#FF00E3; stroke-width:60; stroke-opacity:1; 
stroke-linecap:round; stroke-linejoin:round;">
<text x="4330" y="53400"
textLength="570" font-size="680" lengthAdjust="spacingAndGlyphs"
text-anchor="middle" opacity="0">C</text>
<path d="M4480 53330
L4460 53350
L4390 53380
L4340 53380
L4260 53350
L4220 53300
L4190 53250
L4170 53160
L4170 53080
L4190 52990
L4220 52940
L4260 52890
L4340 52870
L4390 52870
L4460 52890
L4480 52910
" />
</g>
<g style="fill:#FF00E3; fill-opacity:0.0; 
stroke:#FF00E3; stroke-width:100; stroke-opacity:1; 
stroke-linecap:round; stroke-linejoin:round;">
</g>
<g style="fill:#FF00E3; fill-opacity:0.0; 
stroke:#FF00E3; stroke-width:60; stroke-opacity:1; 
stroke-linecap:round; stroke-linejoin:round;">
<text x="4330" y="73080"
textLength="570" font-size="680" lengthAdjust="spacingAndGlyphs"
text-anchor="middle" opacity="0">D</text>
<path d="M4190 73060
L4190 72550
L4310 72550
L4390 72570
L4430 72620
L4460 72670
L4480 72760
L4480 72840
L4460 72930
L4430 72980
L4390 73030
L4310 73060
L4190 73060
" />
</g>
<g style="fill:#FF00E3; fill-opacity:0.0; 
stroke:#FF00E3; stroke-width:100; stroke-opacity:1; 
stroke-linecap:round; stroke-linejoin:round;">
</g>
<g style="fill:#FF00E3; fill-opacity:0.0; 
stroke:#FF00E3; stroke-width:60; stroke-opacity:1; 
stroke-linecap:round; stroke-linejoin:round;">
<path d="M112990 23620
L112210 23620
" />
</g>
<g style="fill:#FF00E3; fill-opacity:0.0; 
stroke:#FF00E3; stroke-width:100; stroke-opacity:1; 
stroke-linecap:round; stroke-linejoin:round;">
</g>
<g style="fill:#FF00E3; fill-opacity:0.0; 
stroke:#FF00E3; stroke-width:60; stroke-opacity:1; 
stroke-linecap:round; stroke-linejoin:round;">
<path d="M112990 43310
L112210 43310
" />
</g>
<g style="fill:#FF00E3; fill-opacity:0.0; 
stroke:#FF00E3; stroke-width:100; stroke-opacity:1; 
stroke-linecap:round; stroke-linejoin:round;">
</g>
<g style="fill:#FF00E3; fill-opacity:0.0; 
stroke:#FF00E3; stroke-width:60; stroke-opacity:1; 
stroke-linecap:round; stroke-linejoin:round;">
<path d="M112990 62990
L112210 62990
" />
</g>
<g style="fill:#FF00E3; fill-opacity:0.0; 
stroke:#FF00E3; stroke-width:100; stroke-opacity:1; 
stroke-linecap:round; stroke-linejoin:round;">
</g>
<g style="fill:#FF00E3; fill-opacity:0.0; 
stroke:#FF00E3; stroke-width:60; stroke-opacity:1; 
stroke-linecap:round; stroke-linejoin:round;">
<text x="112600" y="14030"
textLength="500" font-size="680" lengthAdjust="spacingAndGlyphs"
text-anchor="middle" opacity="0">A</text>
<path d="M112470 13860
L112720 13860
" />
<path d="M112430 14010
L112600 13500
L112770 14010
" />
</g>
<g style="fill:#FF00E3; fill-opacity:0.0; 
stroke:#FF00E3; stroke-width:100; stroke-opacity:1; 
stroke-linecap:round; stroke-linejoin:round;">
</g>
<g style="fill:#FF00E3; fill-opacity:0.0; 
stroke:#FF00E3; stroke-width:60; stroke-opacity:1; 
stroke-linecap:round; stroke-linejoin:round;">
<text x="112600" y="33710"
textLength="570" font-size="680" lengthAdjust="spacingAndGlyphs"
text-anchor="middle" opacity="0">B</text>
<path d="M112630 33420
L112700 33440
L112730 33470
L112750 33520
L112750 33590
L112730 33640
L112700 33660
L112660 33690
L112460 33690
L112460 33180
L112630 33180
L112680 33200
L112700 33220
L112730 33270
L112730 33320
L112700 33370
L112680 33390
L112630 33420
L112460 33420
" />
</g>
<g style="fill:#FF00E3; fill-opacity:0.0; 
stroke:#FF00E3; stroke-width:100; stroke-opacity:1; 
stroke-linecap:round; stroke-linejoin:round;">
</g>
<g style="fill:#FF00E3; fill-opacity:0.0; 
stroke:#FF00E3; stroke-width:60; stroke-opacity:1; 
stroke-linecap:round; stroke-linejoin:round;">
<text x="112600" y="53400"
textLength="570" font-size="680" lengthAdjust="spacingAndGlyphs"
text-anchor="middle" opacity="0">C</text>
<path d="M112750 53330
L112730 53350
L112660 53380
L112610 53380
L112530 53350
L112490 53300
L112460 53250
L112440 53160
L112440 53080
L112460 52990
L112490 52940
L112530 52890
L112610 52870
L112660 52870
L112730 52890
L112750 52910
" />
</g>
<g style="fill:#FF00E3; fill-opacity:0.0; 
stroke:#FF00E3; stroke-width:100; stroke-opacity:1; 
stroke-linecap:round; stroke-linejoin:round;">
</g>
<g style="fill:#FF00E3; fill-opacity:0.0; 
stroke:#FF00E3; stroke-width:60; stroke-opacity:1; 
stroke-linecap:round; stroke-linejoin:round;">
<text x="112600" y="73080"
textLength="570" font-size="680" lengthAdjust="spacingAndGlyphs"
text-anchor="middle" opacity="0">D</text>
<path d="M112460 73060
L112460 72550
L112580 72550
L112660 72570
L112700 72620
L112730 72670
L112750 72760
L112750 72840
L112730 72930
L112700 72980
L112660 73030
L112580 73060
L112460 73060
" />
</g>
<g style="fill:#FF00E3; fill-opacity:0.0; 
stroke:#FF00E3; stroke-width:100; stroke-opacity:1; 
stroke-linecap:round; stroke-linejoin:round;">
</g>
<g style="fill:#FF00E3; fill-opacity:0.0; 
stroke:#FF00E3; stroke-width:60; stroke-opacity:1; 
stroke-linecap:round; stroke-linejoin:round;">
<text x="78740" y="76320"
textLength="2760" font-size="780" lengthAdjust="spacingAndGlyphs"
text-anchor="start" opacity="0">Date: </text>
<path d="M78910 76290
L78910 75700
L79050 75700
L79130 75730
L79190 75790
L79210 75840
L79240 75950
L79240 76040
L79210 76150
L79190 76210
L79130 76260
L79050 76290
L78910 76290
" />
<path d="M79750 76290
L79750 75980
L79720 75930
L79660 75900
L79550 75900
L79500 75930
" />
<path d="M79750 76260
L79690 76290
L79550 76290
L79500 76260
L79470 76210
L79470 76150
L79500 76100
L79550 76070
L79690 76070
L79750 76040
" />
<path d="M79950 75900
L80170 75900
" />
<path d="M80030 75700
L80030 76210
L80060 76260
L80110 76290
L80170 76290
" />
<path d="M80590 76260
L80540 76290
L80420 76290
L80370 76260
L80340 76210
L80340 75980
L80370 75930
L80420 75900
L80540 75900
L80590 75930
L80620 75980
L80620 76040
L80340 76100
" />
<path d="M80870 76240
L80900 76260
L80870 76290
L80840 76260
L80870 76240
L80870 76290
" />
<path d="M80870 75930
L80900 75950
L80870 75980
L80840 75950
L80870 75930
L80870 75980
" />
</g>
<g style="fill:#FF00E3; fill-opacity:0.0; 
stroke:#FF00E3; stroke-width:100; stroke-opacity:1; 
stroke-linecap:round; stroke-linejoin:round;">
</g>
<g style="fill:#FF00E3; fill-opacity:0.0; 
stroke:#FF00E3; stroke-width:60; stroke-opacity:1; 
stroke-linecap:round; stroke-linejoin:round;">
<path d="M69690 76580
L112210 76580
" />
</g>
<g style="fill:#FF00E3; fill-opacity:0.0; 
stroke:#FF00E3; stroke-width:100; stroke-opacity:1; 
stroke-linecap:round; stroke-linejoin:round;">
</g>
<g style="fill:#FF00E3; fill-opacity:0.0; 
stroke:#FF00E3; stroke-width:60; stroke-opacity:1; 
stroke-linecap:round; stroke-linejoin:round;">
<text x="70080" y="77420"
textLength="16950" font-size="780" lengthAdjust="spacingAndGlyphs"
text-anchor="start" opacity="0">KiCad E.D.A.  kicad (5.1.6-0-10_14)</text>
<path d="M70250 77390
L70250 76800
" />
<path d="M70580 77390
L70330 77050
" />
<path d="M70580 76800
L70250 77140
" />
<path d="M70840 77390
L70840 77000
" />
<path d="M70840 76800
L70810 76830
L70840 76860
L70860 76830
L70840 76800
L70840 76860
" />
<path d="M71450 77340
L71430 77360
L71340 77390
L71290 77390
L71200 77360
L71140 77310
L71120 77250
L71090 77140
L71090 77050
L71120 76940
L71140 76890
L71200 76830
L71290 76800
L71340 76800
L71430 76830
L71450 76860
" />
<path d="M71960 77390
L71960 77080
L71930 77030
L71880 77000
L71760 77000
L71710 77030
" />
<path d="M71960 77360
L71900 77390
L71760 77390
L71710 77360
L71680 77310
L71680 77250
L71710 77200
L71760 77170
L71900 77170
L71960 77140
" />
<path d="M72490 77390
L72490 76800
" />
<path d="M72490 77360
L72440 77390
L72320 77390
L72270 77360
L72240 77340
L72210 77280
L72210 77110
L72240 77050
L72270 77030
L72320 77000
L72440 77000
L72490 77030
" />
<path d="M73220 77080
L73420 77080
" />
<path d="M73500 77390
L73220 77390
L73220 76800
L73500 76800
" />
<path d="M73760 77340
L73790 77360
L73760 77390
L73730 77360
L73760 77340
L73760 77390
" />
<path d="M74040 77390
L74040 76800
L74180 76800
L74260 76830
L74320 76890
L74350 76940
L74380 77050
L74380 77140
L74350 77250
L74320 77310
L74260 77360
L74180 77390
L74040 77390
" />
<path d="M74630 77340
L74660 77360
L74630 77390
L74600 77360
L74630 77340
L74630 77390
" />
<path d="M74880 77220
L75160 77220
" />
<path d="M74830 77390
L75020 76800
L75220 77390
" />
<path d="M75420 77340
L75440 77360
L75420 77390
L75390 77360
L75420 77340
L75420 77390
" />
<path d="M76600 77390
L76600 76800
" />
<path d="M76650 77170
L76820 77390
" />
<path d="M76820 77000
L76600 77220
" />
<path d="M77070 77390
L77070 77000
" />
<path d="M77070 76800
L77040 76830
L77070 76860
L77100 76830
L77070 76800
L77070 76860
" />
<path d="M77610 77360
L77550 77390
L77440 77390
L77380 77360
L77350 77340
L77330 77280
L77330 77110
L77350 77050
L77380 77030
L77440 77000
L77550 77000
L77610 77030
" />
<path d="M78110 77390
L78110 77080
L78080 77030
L78030 77000
L77920 77000
L77860 77030
" />
<path d="M78110 77360
L78060 77390
L77920 77390
L77860 77360
L77830 77310
L77830 77250
L77860 77200
L77920 77170
L78060 77170
L78110 77140
" />
<path d="M78650 77390
L78650 76800
" />
<path d="M78650 77360
L78590 77390
L78480 77390
L78420 77360
L78390 77340
L78370 77280
L78370 77110
L78390 77050
L78420 77030
L78480 77000
L78590 77000
L78650 77030
" />
<path d="M79550 77620
L79520 77590
L79460 77500
L79430 77450
L79400 77360
L79380 77220
L79380 77110
L79400 76970
L79430 76890
L79460 76830
L79520 76750
L79550 76720
" />
<path d="M80050 76800
L79770 76800
L79740 77080
L79770 77050
L79830 77030
L79970 77030
L80020 77050
L80050 77080
L80080 77140
L80080 77280
L80050 77340
L80020 77360
L79970 77390
L79830 77390
L79770 77360
L79740 77340
" />
<path d="M80330 77340
L80360 77360
L80330 77390
L80300 77360
L80330 77340
L80330 77390
" />
<path d="M80920 77390
L80580 77390
" />
<path d="M80750 77390
L80750 76800
L80700 76890
L80640 76940
L80580 76970
" />
<path d="M81170 77340
L81200 77360
L81170 77390
L81150 77360
L81170 77340
L81170 77390
" />
<path d="M81710 76800
L81600 76800
L81540 76830
L81510 76860
L81460 76940
L81430 77050
L81430 77280
L81460 77340
L81480 77360
L81540 77390
L81650 77390
L81710 77360
L81740 77340
L81760 77280
L81760 77140
L81740 77080
L81710 77050
L81650 77030
L81540 77030
L81480 77050
L81460 77080
L81430 77140
" />
<path d="M82020 77170
L82470 77170
" />
<path d="M82860 76800
L82920 76800
L82970 76830
L83000 76860
L83030 76910
L83060 77030
L83060 77170
L83030 77280
L83000 77340
L82970 77360
L82920 77390
L82860 77390
L82800 77360
L82780 77340
L82750 77280
L82720 77170
L82720 77030
L82750 76910
L82780 76860
L82800 76830
L82860 76800
" />
<path d="M83310 77170
L83760 77170
" />
<path d="M84350 77390
L84010 77390
" />
<path d="M84180 77390
L84180 76800
L84120 76890
L84070 76940
L84010 76970
" />
<path d="M84710 76800
L84770 76800
L84830 76830
L84860 76860
L84880 76910
L84910 77030
L84910 77170
L84880 77280
L84860 77340
L84830 77360
L84770 77390
L84710 77390
L84660 77360
L84630 77340
L84600 77280
L84570 77170
L84570 77030
L84600 76910
L84630 76860
L84660 76830
L84710 76800
" />
<path d="M85020 77450
L85470 77450
" />
<path d="M85920 77390
L85590 77390
" />
<path d="M85750 77390
L85750 76800
L85700 76890
L85640 76940
L85590 76970
" />
<path d="M86430 77000
L86430 77390
" />
<path d="M86290 76770
L86150 77200
L86510 77200
" />
<path d="M86680 77620
L86710 77590
L86770 77500
L86790 77450
L86820 77360
L86850 77220
L86850 77110
L86820 76970
L86790 76890
L86770 76830
L86710 76750
L86680 76720
" />
</g>
<g style="fill:#FF00E3; fill-opacity:0.0; 
stroke:#FF00E3; stroke-width:100; stroke-opacity:1; 
stroke-linecap:round; stroke-linejoin:round;">
</g>
<g style="fill:#FF00E3; fill-opacity:0.0; 
stroke:#FF00E3; stroke-width:60; stroke-opacity:1; 
stroke-linecap:round; stroke-linejoin:round;">
<path d="M69690 75400
L112210 75400
" />
</g>
<g style="fill:#FF00E3; fill-opacity:0.0; 
stroke:#FF00E3; stroke-width:100; stroke-opacity:1; 
stroke-linecap:round; stroke-linejoin:round;">
</g>
<g style="fill:#FF00E3; fill-opacity:0.0; 
stroke:#FF00E3; stroke-width:120; stroke-opacity:1; 
stroke-linecap:round; stroke-linejoin:round;">
<text x="103540" y="76320"
textLength="2340" font-size="780" lengthAdjust="spacingAndGlyphs"
text-anchor="start" opacity="0">Rev: </text>
<path d="M104090 76290
L103890 76010
" />
<path d="M103750 76290
L103750 75700
L103980 75700
L104030 75730
L104060 75760
L104090 75810
L104090 75900
L104060 75950
L104030 75980
L103980 76010
L103750 76010
" />
<path d="M104570 76260
L104510 76290
L104400 76290
L104340 76260
L104320 76210
L104320 75980
L104340 75930
L104400 75900
L104510 75900
L104570 75930
L104600 75980
L104600 76040
L104320 76100
" />
<path d="M104790 75900
L104930 76290
L105070 75900
" />
<path d="M105300 76240
L105330 76260
L105300 76290
L105270 76260
L105300 76240
L105300 76290
" />
<path d="M105300 75930
L105330 75950
L105300 75980
L105270 75950
L105300 75930
L105300 75980
" />
</g>
<g style="fill:#FF00E3; fill-opacity:0.0; 
stroke:#FF00E3; stroke-width:100; stroke-opacity:1; 
stroke-linecap:round; stroke-linejoin:round;">
</g>
<g style="fill:#FF00E3; fill-opacity:0.0; 
stroke:#FF00E3; stroke-width:60; stroke-opacity:1; 
stroke-linecap:round; stroke-linejoin:round;">
<text x="70080" y="76320"
textLength="3780" font-size="780" lengthAdjust="spacingAndGlyphs"
text-anchor="start" opacity="0">Size: A4</text>
<path d="M70220 76260
L70300 76290
L70440 76290
L70500 76260
L70530 76240
L70550 76180
L70550 76120
L70530 76070
L70500 76040
L70440 76010
L70330 75980
L70270 75950
L70250 75930
L70220 75870
L70220 75810
L70250 75760
L70270 75730
L70330 75700
L70470 75700
L70550 75730
" />
<path d="M70810 76290
L70810 75900
" />
<path d="M70810 75700
L70780 75730
L70810 75760
L70840 75730
L70810 75700
L70810 75760
" />
<path d="M71030 75900
L71340 75900
L71030 76290
L71340 76290
" />
<path d="M71790 76260
L71730 76290
L71620 76290
L71570 76260
L71540 76210
L71540 75980
L71570 75930
L71620 75900
L71730 75900
L71790 75930
L71820 75980
L71820 76040
L71540 76100
" />
<path d="M72070 76240
L72100 76260
L72070 76290
L72040 76260
L72070 76240
L72070 76290
" />
<path d="M72070 75930
L72100 75950
L72070 75980
L72040 75950
L72070 75930
L72070 75980
" />
<path d="M72770 76120
L73060 76120
" />
<path d="M72720 76290
L72910 75700
L73110 76290
" />
<path d="M73560 75900
L73560 76290
" />
<path d="M73420 75670
L73280 76100
L73650 76100
" />
</g>
<g style="fill:#FF00E3; fill-opacity:0.0; 
stroke:#FF00E3; stroke-width:100; stroke-opacity:1; 
stroke-linecap:round; stroke-linejoin:round;">
</g>
<g style="fill:#FF00E3; fill-opacity:0.0; 
stroke:#FF00E3; stroke-width:60; stroke-opacity:1; 
stroke-linecap:round; stroke-linejoin:round;">
<text x="103540" y="77420"
textLength="3910" font-size="780" lengthAdjust="spacingAndGlyphs"
text-anchor="start" opacity="0">Id: 2/21</text>
<path d="M103710 77390
L103710 76800
" />
<path d="M104240 77390
L104240 76800
" />
<path d="M104240 77360
L104180 77390
L104070 77390
L104010 77360
L103990 77340
L103960 77280
L103960 77110
L103990 77050
L104010 77030
L104070 77000
L104180 77000
L104240 77030
" />
<path d="M104520 77340
L104550 77360
L104520 77390
L104490 77360
L104520 77340
L104520 77390
" />
<path d="M104520 77030
L104550 77050
L104520 77080
L104490 77050
L104520 77030
L104520 77080
" />
<path d="M105220 76860
L105250 76830
L105310 76800
L105450 76800
L105500 76830
L105530 76860
L105560 76910
L105560 76970
L105530 77050
L105190 77390
L105560 77390
" />
<path d="M106230 76770
L105730 77530
" />
<path d="M106400 76860
L106430 76830
L106490 76800
L106630 76800
L106680 76830
L106710 76860
L106740 76910
L106740 76970
L106710 77050
L106370 77390
L106740 77390
" />
<path d="M107300 77390
L106960 77390
" />
<path d="M107130 77390
L107130 76800
L107080 76890
L107020 76940
L106960 76970
" />
</g>
<g style="fill:#FF00E3; fill-opacity:0.0; 
stroke:#FF00E3; stroke-width:100; stroke-opacity:1; 
stroke-linecap:round; stroke-linejoin:round;">
</g>
<g style="fill:#FF00E3; fill-opacity:0.0; 
stroke:#FF00E3; stroke-width:60; stroke-opacity:1; 
stroke-linecap:round; stroke-linejoin:round;">
<path d="M69690 73820
L112210 73820
" />
</g>
<g style="fill:#FF00E3; fill-opacity:0.0; 
stroke:#FF00E3; stroke-width:100; stroke-opacity:1; 
stroke-linecap:round; stroke-linejoin:round;">
</g>
<g style="fill:#FF00E3; fill-opacity:0.0; 
stroke:#FF00E3; stroke-width:160; stroke-opacity:1; 
stroke-linecap:round; stroke-linejoin:round;">
<text x="70080" y="74920"
textLength="3710" font-size="1050" lengthAdjust="spacingAndGlyphs"
text-anchor="start" opacity="0">Title: </text>
<path d="M70360 74090
L70810 74090
" />
<path d="M70480 74880
L70580 74090
" />
<path d="M70970 74880
L71040 74360
" />
<path d="M71070 74090
L71030 74130
L71060 74170
L71110 74130
L71070 74090
L71060 74170
" />
<path d="M71300 74360
L71600 74360
" />
<path d="M71450 74090
L71360 74770
L71390 74840
L71460 74880
L71540 74880
" />
<path d="M71910 74880
L71840 74840
L71820 74770
L71900 74090
" />
<path d="M72520 74840
L72440 74880
L72290 74880
L72220 74840
L72190 74770
L72230 74470
L72280 74390
L72360 74360
L72510 74360
L72580 74390
L72610 74470
L72600 74540
L72210 74620
" />
<path d="M72900 74810
L72930 74840
L72890 74880
L72860 74840
L72900 74810
L72890 74880
" />
<path d="M72950 74390
L72990 74430
L72940 74470
L72910 74430
L72950 74390
L72940 74470
" />
</g>
<g style="fill:#FF00E3; fill-opacity:0.0; 
stroke:#FF00E3; stroke-width:100; stroke-opacity:1; 
stroke-linecap:round; stroke-linejoin:round;">
</g>
<g style="fill:#FF00E3; fill-opacity:0.0; 
stroke:#FF00E3; stroke-width:60; stroke-opacity:1; 
stroke-linecap:round; stroke-linejoin:round;">
<text x="70080" y="73400"
textLength="9700" font-size="780" lengthAdjust="spacingAndGlyphs"
text-anchor="start" opacity="0">File: 555_astable.sch</text>
<path d="M70440 73060
L70250 73060
" />
<path d="M70250 73370
L70250 72780
L70530 72780
" />
<path d="M70750 73370
L70750 72980
" />
<path d="M70750 72780
L70720 72810
L70750 72840
L70780 72810
L70750 72780
L70750 72840
" />
<path d="M71120 73370
L71060 73340
L71030 73290
L71030 72780
" />
<path d="M71570 73340
L71510 73370
L71400 73370
L71340 73340
L71310 73290
L71310 73060
L71340 73010
L71400 72980
L71510 72980
L71570 73010
L71590 73060
L71590 73120
L71310 73180
" />
<path d="M71850 73320
L71880 73340
L71850 73370
L71820 73340
L71850 73320
L71850 73370
" />
<path d="M71850 73010
L71880 73030
L71850 73060
L71820 73030
L71850 73010
L71850 73060
" />
<path d="M72860 72780
L72580 72780
L72550 73060
L72580 73030
L72630 73010
L72770 73010
L72830 73030
L72860 73060
L72890 73120
L72890 73260
L72860 73320
L72830 73340
L72770 73370
L72630 73370
L72580 73340
L72550 73320
" />
<path d="M73420 72780
L73140 72780
L73110 73060
L73140 73030
L73200 73010
L73340 73010
L73390 73030
L73420 73060
L73450 73120
L73450 73260
L73420 73320
L73390 73340
L73340 73370
L73200 73370
L73140 73340
L73110 73320
" />
<path d="M73980 72780
L73700 72780
L73670 73060
L73700 73030
L73760 73010
L73900 73010
L73950 73030
L73980 73060
L74010 73120
L74010 73260
L73980 73320
L73950 73340
L73900 73370
L73760 73370
L73700 73340
L73670 73320
" />
<path d="M74120 73430
L74570 73430
" />
<path d="M74970 73370
L74970 73060
L74940 73010
L74880 72980
L74770 72980
L74710 73010
" />
<path d="M74970 73340
L74910 73370
L74770 73370
L74710 73340
L74680 73290
L74680 73230
L74710 73180
L74770 73150
L74910 73150
L74970 73120
" />
<path d="M75220 73340
L75270 73370
L75390 73370
L75440 73340
L75470 73290
L75470 73260
L75440 73200
L75390 73180
L75300 73180
L75250 73150
L75220 73090
L75220 73060
L75250 73010
L75300 72980
L75390 72980
L75440 73010
" />
<path d="M75640 72980
L75860 72980
" />
<path d="M75720 72780
L75720 73290
L75750 73340
L75810 73370
L75860 73370
" />
<path d="M76310 73370
L76310 73060
L76290 73010
L76230 72980
L76120 72980
L76060 73010
" />
<path d="M76310 73340
L76260 73370
L76120 73370
L76060 73340
L76030 73290
L76030 73230
L76060 73180
L76120 73150
L76260 73150
L76310 73120
" />
<path d="M76600 73370
L76600 72780
" />
<path d="M76600 73010
L76650 72980
L76760 72980
L76820 73010
L76850 73030
L76880 73090
L76880 73260
L76850 73320
L76820 73340
L76760 73370
L76650 73370
L76600 73340
" />
<path d="M77210 73370
L77160 73340
L77130 73290
L77130 72780
" />
<path d="M77660 73340
L77610 73370
L77490 73370
L77440 73340
L77410 73290
L77410 73060
L77440 73010
L77490 72980
L77610 72980
L77660 73010
L77690 73060
L77690 73120
L77410 73180
" />
<path d="M77940 73320
L77970 73340
L77940 73370
L77920 73340
L77940 73320
L77940 73370
" />
<path d="M78200 73340
L78250 73370
L78370 73370
L78420 73340
L78450 73290
L78450 73260
L78420 73200
L78370 73180
L78280 73180
L78220 73150
L78200 73090
L78200 73060
L78220 73010
L78280 72980
L78370 72980
L78420 73010
" />
<path d="M78960 73340
L78900 73370
L78790 73370
L78730 73340
L78700 73320
L78670 73260
L78670 73090
L78700 73030
L78730 73010
L78790 72980
L78900 72980
L78960 73010
" />
<path d="M79210 73370
L79210 72780
" />
<path d="M79460 73370
L79460 73060
L79430 73010
L79380 72980
L79290 72980
L79240 73010
L79210 73030
" />
</g>
<g style="fill:#FF00E3; fill-opacity:0.0; 
stroke:#FF00E3; stroke-width:100; stroke-opacity:1; 
stroke-linecap:round; stroke-linejoin:round;">
</g>
<g style="fill:#FF00E3; fill-opacity:0.0; 
stroke:#FF00E3; stroke-width:60; stroke-opacity:1; 
stroke-linecap:round; stroke-linejoin:round;">
<path d="M69690 71460
L112210 71460
" />
</g>
<g style="fill:#FF00E3; fill-opacity:0.0; 
stroke:#FF00E3; stroke-width:100; stroke-opacity:1; 
stroke-linecap:round; stroke-linejoin:round;">
</g>
<g style="fill:#FF00E3; fill-opacity:0.0; 
stroke:#FF00E3; stroke-width:60; stroke-opacity:1; 
stroke-linecap:round; stroke-linejoin:round;">
<text x="70080" y="72340"
textLength="11270" font-size="780" lengthAdjust="spacingAndGlyphs"
text-anchor="start" opacity="0">Sheet: /Sheet60F4E92A/</text>
<path d="M70220 72280
L70300 72310
L70440 72310
L70500 72280
L70530 72260
L70550 72200
L70550 72140
L70530 72090
L70500 72060
L70440 72030
L70330 72000
L70270 71970
L70250 71950
L70220 71890
L70220 71830
L70250 71780
L70270 71750
L70330 71720
L70470 71720
L70550 71750
" />
<path d="M70810 72310
L70810 71720
" />
<path d="M71060 72310
L71060 72000
L71030 71950
L70980 71920
L70890 71920
L70840 71950
L70810 71970
" />
<path d="M71570 72280
L71510 72310
L71400 72310
L71340 72280
L71310 72230
L71310 72000
L71340 71950
L71400 71920
L71510 71920
L71570 71950
L71590 72000
L71590 72060
L71310 72120
" />
<path d="M72070 72280
L72020 72310
L71900 72310
L71850 72280
L71820 72230
L71820 72000
L71850 71950
L71900 71920
L72020 71920
L72070 71950
L72100 72000
L72100 72060
L71820 72120
" />
<path d="M72270 71920
L72490 71920
" />
<path d="M72350 71720
L72350 72230
L72380 72280
L72440 72310
L72490 72310
" />
<path d="M72690 72260
L72720 72280
L72690 72310
L72660 72280
L72690 72260
L72690 72310
" />
<path d="M72690 71950
L72720 71970
L72690 72000
L72660 71970
L72690 71950
L72690 72000
" />
<path d="M73840 71690
L73340 72450
" />
<path d="M74010 72280
L74090 72310
L74240 72310
L74290 72280
L74320 72260
L74350 72200
L74350 72140
L74320 72090
L74290 72060
L74240 72030
L74120 72000
L74070 71970
L74040 71950
L74010 71890
L74010 71830
L74040 71780
L74070 71750
L74120 71720
L74260 71720
L74350 71750
" />
<path d="M74600 72310
L74600 71720
" />
<path d="M74850 72310
L74850 72000
L74830 71950
L74770 71920
L74680 71920
L74630 71950
L74600 71970
" />
<path d="M75360 72280
L75300 72310
L75190 72310
L75130 72280
L75110 72230
L75110 72000
L75130 71950
L75190 71920
L75300 71920
L75360 71950
L75390 72000
L75390 72060
L75110 72120
" />
<path d="M75860 72280
L75810 72310
L75700 72310
L75640 72280
L75610 72230
L75610 72000
L75640 71950
L75700 71920
L75810 71920
L75860 71950
L75890 72000
L75890 72060
L75610 72120
" />
<path d="M76060 71920
L76290 71920
" />
<path d="M76150 71720
L76150 72230
L76170 72280
L76230 72310
L76290 72310
" />
<path d="M76740 71720
L76620 71720
L76570 71750
L76540 71780
L76480 71860
L76450 71970
L76450 72200
L76480 72260
L76510 72280
L76570 72310
L76680 72310
L76740 72280
L76760 72260
L76790 72200
L76790 72060
L76760 72000
L76740 71970
L76680 71950
L76570 71950
L76510 71970
L76480 72000
L76450 72060
" />
<path d="M77160 71720
L77210 71720
L77270 71750
L77300 71780
L77330 71830
L77350 71950
L77350 72090
L77330 72200
L77300 72260
L77270 72280
L77210 72310
L77160 72310
L77100 72280
L77070 72260
L77040 72200
L77020 72090
L77020 71950
L77040 71830
L77070 71780
L77100 71750
L77160 71720
" />
<path d="M77800 72000
L77610 72000
" />
<path d="M77610 72310
L77610 71720
L77890 71720
" />
<path d="M78370 71920
L78370 72310
" />
<path d="M78220 71690
L78080 72120
L78450 72120
" />
<path d="M78670 72000
L78870 72000
" />
<path d="M78960 72310
L78670 72310
L78670 71720
L78960 71720
" />
<path d="M79240 72310
L79350 72310
L79400 72280
L79430 72260
L79490 72170
L79520 72060
L79520 71830
L79490 71780
L79460 71750
L79400 71720
L79290 71720
L79240 71750
L79210 71780
L79180 71830
L79180 71970
L79210 72030
L79240 72060
L79290 72090
L79400 72090
L79460 72060
L79490 72030
L79520 71970
" />
<path d="M79740 71780
L79770 71750
L79830 71720
L79970 71720
L80020 71750
L80050 71780
L80080 71830
L80080 71890
L80050 71970
L79710 72310
L80080 72310
" />
<path d="M80300 72140
L80580 72140
" />
<path d="M80250 72310
L80440 71720
L80640 72310
" />
<path d="M81260 71690
L80750 72450
" />
</g>
<g style="fill:#FF00E3; fill-opacity:0.0; 
stroke:#FF00E3; stroke-width:100; stroke-opacity:1; 
stroke-linecap:round; stroke-linejoin:round;">
</g>
<g style="fill:#FF00E3; fill-opacity:0.0; 
stroke:#FF00E3; stroke-width:60; stroke-opacity:1; 
stroke-linecap:round; stroke-linejoin:round;">
<path d="M77560 75400
L77560 76580
" />
</g>
<g style="fill:#FF00E3; fill-opacity:0.0; 
stroke:#FF00E3; stroke-width:100; stroke-opacity:1; 
stroke-linecap:round; stroke-linejoin:round;">
</g>
<g style="fill:#FF00E3; fill-opacity:0.0; 
stroke:#FF00E3; stroke-width:60; stroke-opacity:1; 
stroke-linecap:round; stroke-linejoin:round;">
<path d="M102760 75400
L102760 77960
" />
</g>
<g style="fill:#FF00E3; fill-opacity:0.0; 
stroke:#FF00E3; stroke-width:0; stroke-opacity:1; 
stroke-linecap:round; stroke-linejoin:round;">
<g >
</g>
<g style="fill:#850000; fill-opacity:0.0; 
stroke:#850000; stroke-width:0; stroke-opacity:1; 
stroke-linecap:round; stroke-linejoin:round;">
</g>
<g style="fill:#850000; fill-opacity:0.0; 
stroke:#850000; stroke-width:100; stroke-opacity:1; 
stroke-linecap:round; stroke-linejoin:round;">
<rect x="53500" y="45600" width="2000" height="800" rx="0" />
</g>
<g style="fill:#840000; fill-opacity:0.0; 
stroke:#840000; stroke-width:100; stroke-opacity:1; 
stroke-linecap:round; stroke-linejoin:round;">
</g>
<g style="fill:#840000; fill-opacity:0.0; 
stroke:#840000; stroke-width:60; stroke-opacity:1; 
stroke-linecap:round; stroke-linejoin:round;">
<path d="M55500 46000
L56000 46000
" />
<path d="M53500 46000
L53000 46000
" />
</g>
<g style="fill:#008484; fill-opacity:0.0; 
stroke:#008484; stroke-width:60; stroke-opacity:1; 
stroke-linecap:round; stroke-linejoin:round;">
<text x="54520" y="47270"
textLength="1040" font-size="660" lengthAdjust="spacingAndGlyphs"
text-anchor="middle" opacity="0">R3</text>
<path d="M54430 47240
L54270 47000
" />
<path d="M54150 47240
L54150 46740
L54340 46740
L54380 46770
L54410 46790
L54430 46840
L54430 46910
L54410 46960
L54380 46980
L54340 47000
L54150 47000
" />
<path d="M54600 46740
L54910 46740
L54740 46930
L54810 46930
L54860 46960
L54880 46980
L54910 47030
L54910 47150
L54880 47190
L54860 47220
L54810 47240
L54670 47240
L54620 47220
L54600 47190
" />
<text x="54740" y="48270"
textLength="1490" font-size="660" lengthAdjust="spacingAndGlyphs"
text-anchor="middle" opacity="0">100</text>
<path d="M54400 48240
L54120 48240
" />
<path d="M54260 48240
L54260 47740
L54210 47810
L54160 47860
L54120 47880
" />
<path d="M54710 47740
L54760 47740
L54810 47770
L54830 47790
L54850 47840
L54880 47930
L54880 48050
L54850 48150
L54830 48190
L54810 48220
L54760 48240
L54710 48240
L54660 48220
L54640 48190
L54620 48150
L54590 48050
L54590 47930
L54620 47840
L54640 47790
L54660 47770
L54710 47740
" />
<path d="M55190 47740
L55240 47740
L55280 47770
L55310 47790
L55330 47840
L55350 47930
L55350 48050
L55330 48150
L55310 48190
L55280 48220
L55240 48240
L55190 48240
L55140 48220
L55120 48190
L55090 48150
L55070 48050
L55070 47930
L55090 47840
L55120 47790
L55140 47770
L55190 47740
" />
</g>
</g>
<g style="fill:#008484; fill-opacity:0.0; 
stroke:#008484; stroke-width:0; stroke-opacity:1; 
stroke-linecap:round; stroke-linejoin:round;">
<g >
</g>
<g style="fill:#850000; fill-opacity:0.0; 
stroke:#850000; stroke-width:0; stroke-opacity:1; 
stroke-linecap:round; stroke-linejoin:round;">
</g>
<g style="fill:#850000; fill-opacity:0.0; 
stroke:#850000; stroke-width:60; stroke-opacity:1; 
stroke-linecap:round; stroke-linejoin:round;">
<path style="fill:#850000; fill-opacity:0.0; 
stroke:#850000; stroke-width:60; stroke-opacity:1; 
stroke-linecap:round; stroke-linejoin:round;fill:none"
d="M 57000,54500
57000,55000
57500,55000
57000,55500
56500,55000
57000,55000
" /> 
</g>
<g style="fill:#008484; fill-opacity:0.0; 
stroke:#008484; stroke-width:60; stroke-opacity:1; 
stroke-linecap:round; stroke-linejoin:round;">
<text x="57050" y="56500"
textLength="1580" font-size="660" lengthAdjust="spacingAndGlyphs"
text-anchor="middle" opacity="0">GND</text>
<path d="M56660 56000
L56620 55970
L56550 55970
L56470 56000
L56430 56040
L56400 56090
L56380 56190
L56380 56260
L56400 56350
L56430 56400
L56470 56450
L56550 56470
L56590 56470
L56660 56450
L56690 56420
L56690 56260
L56590 56260
" />
<path d="M56900 56470
L56900 55970
L57190 56470
L57190 55970
" />
<path d="M57430 56470
L57430 55970
L57550 55970
L57620 56000
L57660 56040
L57690 56090
L57710 56190
L57710 56260
L57690 56350
L57660 56400
L57620 56450
L57550 56470
L57430 56470
" />
</g>
</g>
<g style="fill:#008484; fill-opacity:0.0; 
stroke:#008484; stroke-width:0; stroke-opacity:1; 
stroke-linecap:round; stroke-linejoin:round;">
<g >
</g>
<g style="fill:#850000; fill-opacity:0.0; 
stroke:#850000; stroke-width:0; stroke-opacity:1; 
stroke-linecap:round; stroke-linejoin:round;">
</g>
<g style="fill:#850000; fill-opacity:0.0; 
stroke:#850000; stroke-width:200; stroke-opacity:1; 
stroke-linecap:round; stroke-linejoin:round;">
<path style="fill:#850000; fill-opacity:0.0; 
stroke:#850000; stroke-width:200; stroke-opacity:1; 
stroke-linecap:round; stroke-linejoin:round;fill:none"
d="M 45200,50800
46800,50800
" /> 
<path style="fill:#850000; fill-opacity:0.0; 
stroke:#850000; stroke-width:200; stroke-opacity:1; 
stroke-linecap:round; stroke-linejoin:round;fill:none"
d="M 45200,50200
46800,50200
" /> 
</g>
<g style="fill:#840000; fill-opacity:0.0; 
stroke:#840000; stroke-width:200; stroke-opacity:1; 
stroke-linecap:round; stroke-linejoin:round;">
</g>
<g style="fill:#840000; fill-opacity:0.0; 
stroke:#840000; stroke-width:60; stroke-opacity:1; 
stroke-linecap:round; stroke-linejoin:round;">
<path d="M46000 50100
L46000 49000
" />
<path d="M46000 50900
L46000 52000
" />
</g>
<g style="fill:#008484; fill-opacity:0.0; 
stroke:#008484; stroke-width:60; stroke-opacity:1; 
stroke-linecap:round; stroke-linejoin:round;">
<text x="48020" y="50770"
textLength="1040" font-size="660" lengthAdjust="spacingAndGlyphs"
text-anchor="middle" opacity="0">C2</text>
<path d="M47930 50690
L47910 50720
L47840 50740
L47790 50740
L47720 50720
L47670 50670
L47650 50620
L47620 50530
L47620 50460
L47650 50360
L47670 50310
L47720 50270
L47790 50240
L47840 50240
L47910 50270
L47930 50290
" />
<path d="M48120 50290
L48150 50270
L48190 50240
L48310 50240
L48360 50270
L48380 50290
L48410 50340
L48410 50380
L48380 50460
L48100 50740
L48410 50740
" />
<text x="48560" y="51770"
textLength="2130" font-size="660" lengthAdjust="spacingAndGlyphs"
text-anchor="middle" opacity="0">4.7uF</text>
<path d="M47850 51410
L47850 51740
" />
<path d="M47730 51220
L47610 51570
L47920 51570
" />
<path d="M48110 51690
L48140 51720
L48110 51740
L48090 51720
L48110 51690
L48110 51740
" />
<path d="M48310 51240
L48640 51240
L48420 51740
" />
<path d="M49040 51410
L49040 51740
" />
<path d="M48830 51410
L48830 51670
L48850 51720
L48900 51740
L48970 51740
L49020 51720
L49040 51690
" />
<path d="M49450 51480
L49280 51480
" />
<path d="M49280 51740
L49280 51240
L49520 51240
" />
</g>
</g>
<g style="fill:#008484; fill-opacity:0.0; 
stroke:#008484; stroke-width:0; stroke-opacity:1; 
stroke-linecap:round; stroke-linejoin:round;">
<g >
</g>
<g style="fill:#850000; fill-opacity:0.0; 
stroke:#850000; stroke-width:0; stroke-opacity:1; 
stroke-linecap:round; stroke-linejoin:round;">
</g>
<g style="fill:#850000; fill-opacity:0.0; 
stroke:#850000; stroke-width:200; stroke-opacity:1; 
stroke-linecap:round; stroke-linejoin:round;">
<path style="fill:#850000; fill-opacity:0.0; 
stroke:#850000; stroke-width:200; stroke-opacity:1; 
stroke-linecap:round; stroke-linejoin:round;fill:none"
d="M 50700,50800
52300,50800
" /> 
<path style="fill:#850000; fill-opacity:0.0; 
stroke:#850000; stroke-width:200; stroke-opacity:1; 
stroke-linecap:round; stroke-linejoin:round;fill:none"
d="M 50700,50200
52300,50200
" /> 
</g>
<g style="fill:#840000; fill-opacity:0.0; 
stroke:#840000; stroke-width:200; stroke-opacity:1; 
stroke-linecap:round; stroke-linejoin:round;">
</g>
<g style="fill:#840000; fill-opacity:0.0; 
stroke:#840000; stroke-width:60; stroke-opacity:1; 
stroke-linecap:round; stroke-linejoin:round;">
<path d="M51500 50100
L51500 49000
" />
<path d="M51500 50900
L51500 52000
" />
</g>
<g style="fill:#008484; fill-opacity:0.0; 
stroke:#008484; stroke-width:60; stroke-opacity:1; 
stroke-linecap:round; stroke-linejoin:round;">
<text x="53520" y="50770"
textLength="1040" font-size="660" lengthAdjust="spacingAndGlyphs"
text-anchor="middle" opacity="0">C3</text>
<path d="M53430 50690
L53410 50720
L53340 50740
L53290 50740
L53220 50720
L53170 50670
L53150 50620
L53120 50530
L53120 50460
L53150 50360
L53170 50310
L53220 50270
L53290 50240
L53340 50240
L53410 50270
L53430 50290
" />
<path d="M53600 50240
L53910 50240
L53740 50430
L53810 50430
L53860 50460
L53880 50480
L53910 50530
L53910 50650
L53880 50690
L53860 50720
L53810 50740
L53670 50740
L53620 50720
L53600 50690
" />
<text x="53940" y="51770"
textLength="1890" font-size="660" lengthAdjust="spacingAndGlyphs"
text-anchor="middle" opacity="0">10nF</text>
<path d="M53400 51740
L53110 51740
" />
<path d="M53260 51740
L53260 51240
L53210 51310
L53160 51360
L53110 51380
" />
<path d="M53710 51240
L53760 51240
L53800 51270
L53830 51290
L53850 51340
L53880 51430
L53880 51550
L53850 51650
L53830 51690
L53800 51720
L53760 51740
L53710 51740
L53660 51720
L53640 51690
L53610 51650
L53590 51550
L53590 51430
L53610 51340
L53640 51290
L53660 51270
L53710 51240
" />
<path d="M54090 51410
L54090 51740
" />
<path d="M54090 51460
L54110 51430
L54160 51410
L54230 51410
L54280 51430
L54300 51480
L54300 51740
" />
<path d="M54710 51480
L54540 51480
" />
<path d="M54540 51740
L54540 51240
L54780 51240
" />
</g>
</g>
<g style="fill:#008484; fill-opacity:0.0; 
stroke:#008484; stroke-width:0; stroke-opacity:1; 
stroke-linecap:round; stroke-linejoin:round;">
<g >
</g>
<g style="fill:#850000; fill-opacity:0.0; 
stroke:#850000; stroke-width:0; stroke-opacity:1; 
stroke-linecap:round; stroke-linejoin:round;">
</g>
<g style="fill:#850000; fill-opacity:0.0; 
stroke:#850000; stroke-width:100; stroke-opacity:1; 
stroke-linecap:round; stroke-linejoin:round;">
<rect x="37100" y="37000" width="800" height="2000" rx="0" />
</g>
<g style="fill:#840000; fill-opacity:0.0; 
stroke:#840000; stroke-width:100; stroke-opacity:1; 
stroke-linecap:round; stroke-linejoin:round;">
</g>
<g style="fill:#840000; fill-opacity:0.0; 
stroke:#840000; stroke-width:60; stroke-opacity:1; 
stroke-linecap:round; stroke-linejoin:round;">
<path d="M37500 37000
L37500 36500
" />
<path d="M37500 39000
L37500 39500
" />
</g>
<g style="fill:#008484; fill-opacity:0.0; 
stroke:#008484; stroke-width:60; stroke-opacity:1; 
stroke-linecap:round; stroke-linejoin:round;">
<text x="39020" y="37770"
textLength="1040" font-size="660" lengthAdjust="spacingAndGlyphs"
text-anchor="middle" opacity="0">R1</text>
<path d="M38930 37740
L38770 37500
" />
<path d="M38650 37740
L38650 37240
L38840 37240
L38880 37270
L38910 37290
L38930 37340
L38930 37410
L38910 37460
L38880 37480
L38840 37500
L38650 37500
" />
<path d="M39410 37740
L39120 37740
" />
<path d="M39270 37740
L39270 37240
L39220 37310
L39170 37360
L39120 37380
" />
<text x="39240" y="38770"
textLength="1490" font-size="660" lengthAdjust="spacingAndGlyphs"
text-anchor="middle" opacity="0">220</text>
<path d="M38620 38290
L38640 38270
L38690 38240
L38810 38240
L38850 38270
L38880 38290
L38900 38340
L38900 38380
L38880 38460
L38590 38740
L38900 38740
" />
<path d="M39090 38290
L39120 38270
L39160 38240
L39280 38240
L39330 38270
L39350 38290
L39380 38340
L39380 38380
L39350 38460
L39070 38740
L39380 38740
" />
<path d="M39690 38240
L39740 38240
L39780 38270
L39810 38290
L39830 38340
L39850 38430
L39850 38550
L39830 38650
L39810 38690
L39780 38720
L39740 38740
L39690 38740
L39640 38720
L39620 38690
L39590 38650
L39570 38550
L39570 38430
L39590 38340
L39620 38290
L39640 38270
L39690 38240
" />
</g>
</g>
<g style="fill:#008484; fill-opacity:0.0; 
stroke:#008484; stroke-width:0; stroke-opacity:1; 
stroke-linecap:round; stroke-linejoin:round;">
<g >
</g>
<g style="fill:#850000; fill-opacity:0.0; 
stroke:#850000; stroke-width:0; stroke-opacity:1; 
stroke-linecap:round; stroke-linejoin:round;">
</g>
<g style="fill:#850000; fill-opacity:0.0; 
stroke:#850000; stroke-width:100; stroke-opacity:1; 
stroke-linecap:round; stroke-linejoin:round;">
<rect x="45600" y="33500" width="800" height="2000" rx="0" />
</g>
<g style="fill:#840000; fill-opacity:0.0; 
stroke:#840000; stroke-width:100; stroke-opacity:1; 
stroke-linecap:round; stroke-linejoin:round;">
</g>
<g style="fill:#840000; fill-opacity:0.0; 
stroke:#840000; stroke-width:60; stroke-opacity:1; 
stroke-linecap:round; stroke-linejoin:round;">
<path d="M46000 33500
L46000 33000
" />
<path d="M46000 35500
L46000 36000
" />
</g>
<g style="fill:#008484; fill-opacity:0.0; 
stroke:#008484; stroke-width:60; stroke-opacity:1; 
stroke-linecap:round; stroke-linejoin:round;">
<text x="48020" y="34270"
textLength="1040" font-size="660" lengthAdjust="spacingAndGlyphs"
text-anchor="middle" opacity="0">R2</text>
<path d="M47930 34240
L47770 34000
" />
<path d="M47650 34240
L47650 33740
L47840 33740
L47880 33770
L47910 33790
L47930 33840
L47930 33910
L47910 33960
L47880 33980
L47840 34000
L47650 34000
" />
<path d="M48120 33790
L48150 33770
L48190 33740
L48310 33740
L48360 33770
L48380 33790
L48410 33840
L48410 33880
L48380 33960
L48100 34240
L48410 34240
" />
<text x="48440" y="35270"
textLength="1890" font-size="660" lengthAdjust="spacingAndGlyphs"
text-anchor="middle" opacity="0">100k</text>
<path d="M47900 35240
L47610 35240
" />
<path d="M47760 35240
L47760 34740
L47710 34810
L47660 34860
L47610 34880
" />
<path d="M48210 34740
L48260 34740
L48300 34770
L48330 34790
L48350 34840
L48380 34930
L48380 35050
L48350 35150
L48330 35190
L48300 35220
L48260 35240
L48210 35240
L48160 35220
L48140 35190
L48110 35150
L48090 35050
L48090 34930
L48110 34840
L48140 34790
L48160 34770
L48210 34740
" />
<path d="M48690 34740
L48730 34740
L48780 34770
L48800 34790
L48830 34840
L48850 34930
L48850 35050
L48830 35150
L48800 35190
L48780 35220
L48730 35240
L48690 35240
L48640 35220
L48610 35190
L48590 35150
L48570 35050
L48570 34930
L48590 34840
L48610 34790
L48640 34770
L48690 34740
" />
<path d="M49070 35240
L49070 34740
" />
<path d="M49110 35050
L49260 35240
" />
<path d="M49260 34910
L49070 35100
" />
</g>
</g>
<g style="fill:#008484; fill-opacity:0.0; 
stroke:#008484; stroke-width:0; stroke-opacity:1; 
stroke-linecap:round; stroke-linejoin:round;">
<g >
</g>
<g style="fill:#850000; fill-opacity:0.0; 
stroke:#850000; stroke-width:0; stroke-opacity:1; 
stroke-linecap:round; stroke-linejoin:round;">
</g>
<g style="fill:#850000; fill-opacity:0.0; 
stroke:#850000; stroke-width:100; stroke-opacity:1; 
stroke-linecap:round; stroke-linejoin:round;">
<path style="fill:#850000; fill-opacity:0.0; 
stroke:#850000; stroke-width:100; stroke-opacity:1; 
stroke-linecap:round; stroke-linejoin:round;fill:none"
d="M 38000,43500
37000,43500
" /> 
</g>
<g style="fill:#850000; fill-opacity:0.0; 
stroke:#850000; stroke-width:60; stroke-opacity:1; 
stroke-linecap:round; stroke-linejoin:round;">
<path style="fill:#850000; fill-opacity:0.0; 
stroke:#850000; stroke-width:60; stroke-opacity:1; 
stroke-linecap:round; stroke-linejoin:round;fill:none"
d="M 37500,43500
37500,42500
" /> 
</g>
<g style="fill:#850000; fill-opacity:0.0; 
stroke:#850000; stroke-width:100; stroke-opacity:1; 
stroke-linecap:round; stroke-linejoin:round;">
<path style="fill:#850000; fill-opacity:0.0; 
stroke:#850000; stroke-width:100; stroke-opacity:1; 
stroke-linecap:round; stroke-linejoin:round;fill:none"
d="M 38000,42500
37000,42500
37500,43500
Z" /> 
</g>
<g style="fill:#850000; fill-opacity:0.0; 
stroke:#850000; stroke-width:60; stroke-opacity:1; 
stroke-linecap:round; stroke-linejoin:round;">
<path style="fill:#850000; fill-opacity:0.0; 
stroke:#850000; stroke-width:60; stroke-opacity:1; 
stroke-linecap:round; stroke-linejoin:round;fill:none"
d="M 37800,44200
38400,44800
38400,44500
38400,44800
38100,44800
" /> 
<path style="fill:#850000; fill-opacity:0.0; 
stroke:#850000; stroke-width:60; stroke-opacity:1; 
stroke-linecap:round; stroke-linejoin:round;fill:none"
d="M 37800,43700
38400,44300
38400,44000
38400,44300
38100,44300
" /> 
</g>
<g style="fill:#840000; fill-opacity:0.0; 
stroke:#840000; stroke-width:60; stroke-opacity:1; 
stroke-linecap:round; stroke-linejoin:round;">
<path d="M37500 43500
L37500 44500
" />
<path d="M37500 42500
L37500 41500
" />
</g>
<g style="fill:#008484; fill-opacity:0.0; 
stroke:#008484; stroke-width:60; stroke-opacity:1; 
stroke-linecap:round; stroke-linejoin:round;">
<text x="39200" y="42830"
textLength="1040" font-size="660" lengthAdjust="spacingAndGlyphs"
text-anchor="middle" opacity="0">D1</text>
<path d="M38830 42800
L38830 42300
L38950 42300
L39020 42330
L39060 42370
L39090 42420
L39110 42520
L39110 42590
L39090 42680
L39060 42730
L39020 42780
L38950 42800
L38830 42800
" />
<path d="M39590 42800
L39300 42800
" />
<path d="M39450 42800
L39450 42300
L39400 42370
L39350 42420
L39300 42440
" />
<text x="39390" y="43740"
textLength="1420" font-size="660" lengthAdjust="spacingAndGlyphs"
text-anchor="middle" opacity="0">LED</text>
<path d="M39060 43710
L38830 43710
L38830 43210
" />
<path d="M39230 43450
L39400 43450
" />
<path d="M39470 43710
L39230 43710
L39230 43210
L39470 43210
" />
<path d="M39680 43710
L39680 43210
L39800 43210
L39870 43240
L39920 43280
L39940 43330
L39970 43430
L39970 43500
L39940 43590
L39920 43640
L39870 43690
L39800 43710
L39680 43710
" />
</g>
</g>
<g style="fill:#008484; fill-opacity:0.0; 
stroke:#008484; stroke-width:0; stroke-opacity:1; 
stroke-linecap:round; stroke-linejoin:round;">
<g >
</g>
<g style="fill:#850000; fill-opacity:0.0; 
stroke:#850000; stroke-width:0; stroke-opacity:1; 
stroke-linecap:round; stroke-linejoin:round;">
</g>
<g style="fill:#850000; fill-opacity:0.0; 
stroke:#850000; stroke-width:100; stroke-opacity:1; 
stroke-linecap:round; stroke-linejoin:round;">
<rect x="66500" y="38100" width="2000" height="800" rx="0" />
</g>
<g style="fill:#840000; fill-opacity:0.0; 
stroke:#840000; stroke-width:100; stroke-opacity:1; 
stroke-linecap:round; stroke-linejoin:round;">
</g>
<g style="fill:#840000; fill-opacity:0.0; 
stroke:#840000; stroke-width:60; stroke-opacity:1; 
stroke-linecap:round; stroke-linejoin:round;">
<path d="M68500 38500
L69000 38500
" />
<path d="M66500 38500
L66000 38500
" />
</g>
<g style="fill:#008484; fill-opacity:0.0; 
stroke:#008484; stroke-width:60; stroke-opacity:1; 
stroke-linecap:round; stroke-linejoin:round;">
<text x="68020" y="36270"
textLength="1040" font-size="660" lengthAdjust="spacingAndGlyphs"
text-anchor="middle" opacity="0">R4</text>
<path d="M67930 36240
L67770 36000
" />
<path d="M67650 36240
L67650 35740
L67840 35740
L67880 35770
L67910 35790
L67930 35840
L67930 35910
L67910 35960
L67880 35980
L67840 36000
L67650 36000
" />
<path d="M68360 35910
L68360 36240
" />
<path d="M68240 35720
L68120 36070
L68430 36070
" />
<text x="67710" y="37270"
textLength="1420" font-size="660" lengthAdjust="spacingAndGlyphs"
text-anchor="middle" opacity="0">10k</text>
<path d="M67410 37240
L67120 37240
" />
<path d="M67260 37240
L67260 36740
L67220 36810
L67170 36860
L67120 36880
" />
<path d="M67720 36740
L67760 36740
L67810 36770
L67840 36790
L67860 36840
L67880 36930
L67880 37050
L67860 37150
L67840 37190
L67810 37220
L67760 37240
L67720 37240
L67670 37220
L67650 37190
L67620 37150
L67600 37050
L67600 36930
L67620 36840
L67650 36790
L67670 36770
L67720 36740
" />
<path d="M68100 37240
L68100 36740
" />
<path d="M68150 37050
L68290 37240
" />
<path d="M68290 36910
L68100 37100
" />
</g>
</g>
<g style="fill:#008484; fill-opacity:0.0; 
stroke:#008484; stroke-width:0; stroke-opacity:1; 
stroke-linecap:round; stroke-linejoin:round;">
<g >
</g>
<g style="fill:#850000; fill-opacity:0.0; 
stroke:#850000; stroke-width:0; stroke-opacity:1; 
stroke-linecap:round; stroke-linejoin:round;">
</g>
<g style="fill:#850000; fill-opacity:0.0; 
stroke:#850000; stroke-width:60; stroke-opacity:1; 
stroke-linecap:round; stroke-linejoin:round;">
<path style="fill:#850000; fill-opacity:0.0; 
stroke:#850000; stroke-width:60; stroke-opacity:1; 
stroke-linecap:round; stroke-linejoin:round;fill:none"
d="M 34500,31000
34500,30500
34100,30250
34500,30000
34900,30250
34500,30500
" /> 
</g>
<g style="fill:#840000; fill-opacity:0.0; 
stroke:#840000; stroke-width:60; stroke-opacity:1; 
stroke-linecap:round; stroke-linejoin:round;">
<path d="M34500 31000
L34500 31000
" />
</g>
<g style="fill:#008484; fill-opacity:0.0; 
stroke:#008484; stroke-width:60; stroke-opacity:1; 
stroke-linecap:round; stroke-linejoin:round;">
<text x="34500" y="29540"
textLength="3770" font-size="660" lengthAdjust="spacingAndGlyphs"
text-anchor="middle" opacity="0">PWR_FLAG</text>
<path d="M32760 29510
L32760 29010
L32950 29010
L33000 29040
L33020 29060
L33040 29110
L33040 29180
L33020 29230
L33000 29250
L32950 29270
L32760 29270
" />
<path d="M33210 29010
L33330 29510
L33420 29150
L33520 29510
L33640 29010
" />
<path d="M34110 29510
L33950 29270
" />
<path d="M33830 29510
L33830 29010
L34020 29010
L34070 29040
L34090 29060
L34110 29110
L34110 29180
L34090 29230
L34070 29250
L34020 29270
L33830 29270
" />
<path d="M34210 29560
L34590 29560
" />
<path d="M34880 29250
L34710 29250
" />
<path d="M34710 29510
L34710 29010
L34950 29010
" />
<path d="M35380 29510
L35140 29510
L35140 29010
" />
<path d="M35520 29370
L35760 29370
" />
<path d="M35470 29510
L35640 29010
L35800 29510
" />
<path d="M36230 29040
L36190 29010
L36110 29010
L36040 29040
L36000 29080
L35970 29130
L35950 29230
L35950 29300
L35970 29390
L36000 29440
L36040 29490
L36110 29510
L36160 29510
L36230 29490
L36260 29460
L36260 29300
L36160 29300
" />
</g>
</g>
<g style="fill:#008484; fill-opacity:0.0; 
stroke:#008484; stroke-width:0; stroke-opacity:1; 
stroke-linecap:round; stroke-linejoin:round;">
<g >
</g>
<g style="fill:#850000; fill-opacity:0.0; 
stroke:#850000; stroke-width:0; stroke-opacity:1; 
stroke-linecap:round; stroke-linejoin:round;">
</g>
<g style="fill:#850000; fill-opacity:0.0; 
stroke:#850000; stroke-width:60; stroke-opacity:1; 
stroke-linecap:round; stroke-linejoin:round;">
<path style="fill:#850000; fill-opacity:0.0; 
stroke:#850000; stroke-width:60; stroke-opacity:1; 
stroke-linecap:round; stroke-linejoin:round;fill:none"
d="M 60900,46000
61000,46000
" /> 
<path style="fill:#850000; fill-opacity:0.0; 
stroke:#850000; stroke-width:60; stroke-opacity:1; 
stroke-linecap:round; stroke-linejoin:round;fill:none"
d="M 59100,46000
59000,46000
" /> 
<path style="fill:#850000; fill-opacity:0.0; 
stroke:#850000; stroke-width:60; stroke-opacity:1; 
stroke-linecap:round; stroke-linejoin:round;fill:none"
d="M 59700,45400
60300,45400
" /> 
<path style="fill:#850000; fill-opacity:0.0; 
stroke:#850000; stroke-width:60; stroke-opacity:1; 
stroke-linecap:round; stroke-linejoin:round;fill:none"
d="M 60000,45000
60000,45400
" /> 
<path style="fill:#850000; fill-opacity:0.0; 
stroke:#850000; stroke-width:60; stroke-opacity:1; 
stroke-linecap:round; stroke-linejoin:round;fill:none"
d="M 60300,46000
60450,45600
60600,46000
60750,46400
60900,46000
" /> 
<path style="fill:#850000; fill-opacity:0.0; 
stroke:#850000; stroke-width:60; stroke-opacity:1; 
stroke-linecap:round; stroke-linejoin:round;fill:none"
d="M 59700,46000
59850,45600
60000,46000
60150,46400
60300,46000
" /> 
<path style="fill:#850000; fill-opacity:0.0; 
stroke:#850000; stroke-width:60; stroke-opacity:1; 
stroke-linecap:round; stroke-linejoin:round;fill:none"
d="M 59100,46000
59250,45600
59400,46000
59550,46400
59700,46000
" /> 
</g>
<g style="fill:#840000; fill-opacity:0.0; 
stroke:#840000; stroke-width:60; stroke-opacity:1; 
stroke-linecap:round; stroke-linejoin:round;">
<path d="M59000 46000
L58500 46000
" />
<text x="58750" y="45900"
textLength="540" font-size="660" lengthAdjust="spacingAndGlyphs"
text-anchor="middle" opacity="0">1</text>
<path d="M58890 45870
L58600 45870
" />
<path d="M58750 45870
L58750 45370
L58700 45440
L58650 45490
L58600 45510
" />
<path d="M60000 45000
L60000 44500
" />
<g transform="rotate(-90 59900 44750)">
<text x="59900" y="44750"
textLength="540" font-size="660" lengthAdjust="spacingAndGlyphs"
text-anchor="middle" opacity="0">2</text>
</g>
<path d="M59420 44890
L59400 44860
L59370 44820
L59370 44700
L59400 44650
L59420 44630
L59470 44600
L59510 44600
L59590 44630
L59870 44910
L59870 44600
" />
<path d="M61000 46000
L61500 46000
" />
<text x="61250" y="45900"
textLength="540" font-size="660" lengthAdjust="spacingAndGlyphs"
text-anchor="middle" opacity="0">3</text>
<path d="M61080 45370
L61390 45370
L61220 45560
L61290 45560
L61340 45590
L61360 45610
L61390 45660
L61390 45780
L61360 45820
L61340 45850
L61290 45870
L61150 45870
L61100 45850
L61080 45820
" />
</g>
<g style="fill:#008484; fill-opacity:0.0; 
stroke:#008484; stroke-width:60; stroke-opacity:1; 
stroke-linecap:round; stroke-linejoin:round;">
<text x="59730" y="47220"
textLength="1460" font-size="660" lengthAdjust="spacingAndGlyphs"
text-anchor="middle" opacity="0">RV1</text>
<path d="M59430 47190
L59260 46950
" />
<path d="M59140 47190
L59140 46690
L59330 46690
L59380 46720
L59400 46740
L59430 46790
L59430 46860
L59400 46910
L59380 46930
L59330 46950
L59140 46950
" />
<path d="M59570 46690
L59740 47190
L59900 46690
" />
<path d="M60330 47190
L60050 47190
" />
<path d="M60190 47190
L60190 46690
L60140 46760
L60090 46810
L60050 46830
" />
<text x="59470" y="48220"
textLength="940" font-size="660" lengthAdjust="spacingAndGlyphs"
text-anchor="middle" opacity="0">1k</text>
<path d="M59410 48190
L59120 48190
" />
<path d="M59260 48190
L59260 47690
L59220 47760
L59170 47810
L59120 47830
" />
<path d="M59620 48190
L59620 47690
" />
<path d="M59670 48000
L59810 48190
" />
<path d="M59810 47860
L59620 48050
" />
</g>
</g>
<g style="fill:#008484; fill-opacity:0.0; 
stroke:#008484; stroke-width:0; stroke-opacity:1; 
stroke-linecap:round; stroke-linejoin:round;">
<g >
</g>
<g style="fill:#850000; fill-opacity:0.0; 
stroke:#850000; stroke-width:0; stroke-opacity:1; 
stroke-linecap:round; stroke-linejoin:round;">
</g>
<g style="fill:#FFFFC2; fill-opacity:0.0; 
stroke:#FFFFC2; stroke-width:0; stroke-opacity:1; 
stroke-linecap:round; stroke-linejoin:round;">
</g>
<g style="fill:#FFFFC2; fill-opacity:0.6; 
stroke:#FFFFC2; stroke-width:0; stroke-opacity:1; 
stroke-linecap:round; stroke-linejoin:round;">
<rect x="53500" y="35500" width="7000" height="5000" rx="0" />
</g>
<g style="fill:#850000; fill-opacity:0.6; 
stroke:#850000; stroke-width:0; stroke-opacity:1; 
stroke-linecap:round; stroke-linejoin:round;">
</g>
<g style="fill:#850000; fill-opacity:0.0; 
stroke:#850000; stroke-width:60; stroke-opacity:1; 
stroke-linecap:round; stroke-linejoin:round;">
<rect x="53500" y="35500" width="7000" height="5000" rx="0" />
<rect x="53500" y="35500" width="7000" height="5000" rx="0" />
</g>
<g style="fill:#840000; fill-opacity:0.0; 
stroke:#840000; stroke-width:60; stroke-opacity:1; 
stroke-linecap:round; stroke-linejoin:round;">
<path d="M57000 40500
L57000 41500
" />
</g>
<g style="fill:#008484; fill-opacity:0.0; 
stroke:#008484; stroke-width:60; stroke-opacity:1; 
stroke-linecap:round; stroke-linejoin:round;">
<g transform="rotate(-90 57000 40100)">
<text x="57000" y="40350"
textLength="1580" font-size="660" lengthAdjust="spacingAndGlyphs"
text-anchor="start" opacity="0">GND</text>
</g>
<path d="M56750 39680
L56720 39730
L56720 39800
L56750 39870
L56790 39920
L56840 39950
L56940 39970
L57010 39970
L57100 39950
L57150 39920
L57200 39870
L57220 39800
L57220 39760
L57200 39680
L57170 39660
L57010 39660
L57010 39760
" />
<path d="M57220 39450
L56720 39450
L57220 39160
L56720 39160
" />
<path d="M57220 38920
L56720 38920
L56720 38800
L56750 38730
L56790 38680
L56840 38660
L56940 38640
L57010 38640
L57100 38660
L57150 38680
L57200 38730
L57220 38800
L57220 38920
" />
</g>
<g style="fill:#840000; fill-opacity:0.0; 
stroke:#840000; stroke-width:60; stroke-opacity:1; 
stroke-linecap:round; stroke-linejoin:round;">
<g transform="rotate(-90 56900 41000)">
<text x="56900" y="41000"
textLength="540" font-size="660" lengthAdjust="spacingAndGlyphs"
text-anchor="middle" opacity="0">1</text>
</g>
<path d="M56870 40850
L56870 41140
" />
<path d="M56870 41000
L56370 41000
L56440 41040
L56490 41090
L56510 41140
" />
<path d="M53500 38500
L52000 38500
" />
</g>
<g style="fill:#008484; fill-opacity:0.0; 
stroke:#008484; stroke-width:60; stroke-opacity:1; 
stroke-linecap:round; stroke-linejoin:round;">
<text x="53900" y="38750"
textLength="1680" font-size="660" lengthAdjust="spacingAndGlyphs"
text-anchor="start" opacity="0">TRIG</text>
<path d="M53970 38220
L54260 38220
" />
<path d="M54120 38720
L54120 38220
" />
<path d="M54710 38720
L54540 38480
" />
<path d="M54430 38720
L54430 38220
L54620 38220
L54660 38250
L54690 38270
L54710 38320
L54710 38390
L54690 38440
L54660 38460
L54620 38480
L54430 38480
" />
<path d="M54930 38720
L54930 38220
" />
<path d="M55430 38250
L55380 38220
L55310 38220
L55230 38250
L55190 38290
L55160 38340
L55140 38440
L55140 38510
L55160 38600
L55190 38650
L55230 38700
L55310 38720
L55350 38720
L55430 38700
L55450 38670
L55450 38510
L55350 38510
" />
</g>
<g style="fill:#840000; fill-opacity:0.0; 
stroke:#840000; stroke-width:60; stroke-opacity:1; 
stroke-linecap:round; stroke-linejoin:round;">
<text x="52750" y="38400"
textLength="540" font-size="660" lengthAdjust="spacingAndGlyphs"
text-anchor="middle" opacity="0">2</text>
<path d="M52600 37920
L52630 37900
L52670 37870
L52790 37870
L52840 37900
L52860 37920
L52890 37970
L52890 38010
L52860 38090
L52580 38370
L52890 38370
" />
<path d="M60500 38500
L62000 38500
" />
</g>
<g style="fill:#008484; fill-opacity:0.0; 
stroke:#008484; stroke-width:60; stroke-opacity:1; 
stroke-linecap:round; stroke-linejoin:round;">
<text x="60100" y="38750"
textLength="1490" font-size="660" lengthAdjust="spacingAndGlyphs"
text-anchor="end" opacity="0">OUT</text>
<path d="M58850 38220
L58950 38220
L58990 38250
L59040 38290
L59070 38390
L59070 38550
L59040 38650
L58990 38700
L58950 38720
L58850 38720
L58800 38700
L58760 38650
L58730 38550
L58730 38390
L58760 38290
L58800 38250
L58850 38220
" />
<path d="M59280 38220
L59280 38630
L59300 38670
L59330 38700
L59370 38720
L59470 38720
L59520 38700
L59540 38670
L59570 38630
L59570 38220
" />
<path d="M59730 38220
L60020 38220
" />
<path d="M59870 38720
L59870 38220
" />
</g>
<g style="fill:#840000; fill-opacity:0.0; 
stroke:#840000; stroke-width:60; stroke-opacity:1; 
stroke-linecap:round; stroke-linejoin:round;">
<text x="61250" y="38400"
textLength="540" font-size="660" lengthAdjust="spacingAndGlyphs"
text-anchor="middle" opacity="0">3</text>
<path d="M61080 37870
L61390 37870
L61220 38060
L61290 38060
L61340 38090
L61360 38110
L61390 38160
L61390 38280
L61360 38320
L61340 38350
L61290 38370
L61150 38370
L61100 38350
L61080 38320
" />
<path d="M53500 36500
L52000 36500
" />
</g>
<g style="fill:#008484; fill-opacity:0.0; 
stroke:#008484; stroke-width:60; stroke-opacity:1; 
stroke-linecap:round; stroke-linejoin:round;">
<text x="53900" y="36750"
textLength="2320" font-size="660" lengthAdjust="spacingAndGlyphs"
text-anchor="start" opacity="0">RESET</text>
<path d="M54330 36720
L54160 36480
" />
<path d="M54040 36720
L54040 36220
L54230 36220
L54280 36250
L54310 36270
L54330 36320
L54330 36390
L54310 36440
L54280 36460
L54230 36480
L54040 36480
" />
<path d="M54540 36460
L54710 36460
" />
<path d="M54780 36720
L54540 36720
L54540 36220
L54780 36220
" />
<path d="M54970 36700
L55040 36720
L55160 36720
L55210 36700
L55230 36670
L55260 36630
L55260 36580
L55230 36530
L55210 36510
L55160 36480
L55070 36460
L55020 36440
L55000 36410
L54970 36360
L54970 36320
L55000 36270
L55020 36250
L55070 36220
L55190 36220
L55260 36250
" />
<path d="M55470 36460
L55640 36460
" />
<path d="M55710 36720
L55470 36720
L55470 36220
L55710 36220
" />
<path d="M55850 36220
L56140 36220
" />
<path d="M56000 36720
L56000 36220
" />
</g>
<g style="fill:#840000; fill-opacity:0.0; 
stroke:#840000; stroke-width:60; stroke-opacity:1; 
stroke-linecap:round; stroke-linejoin:round;">
<text x="52750" y="36400"
textLength="540" font-size="660" lengthAdjust="spacingAndGlyphs"
text-anchor="middle" opacity="0">4</text>
<path d="M52840 36040
L52840 36370
" />
<path d="M52720 35850
L52600 36200
L52910 36200
" />
<path d="M53500 39500
L52000 39500
" />
</g>
<g style="fill:#008484; fill-opacity:0.0; 
stroke:#008484; stroke-width:60; stroke-opacity:1; 
stroke-linecap:round; stroke-linejoin:round;">
<text x="53900" y="39750"
textLength="1990" font-size="660" lengthAdjust="spacingAndGlyphs"
text-anchor="start" opacity="0">CONT</text>
<path d="M54330 39670
L54310 39700
L54230 39720
L54190 39720
L54120 39700
L54070 39650
L54040 39600
L54020 39510
L54020 39440
L54040 39340
L54070 39290
L54120 39250
L54190 39220
L54230 39220
L54310 39250
L54330 39270
" />
<path d="M54640 39220
L54730 39220
L54780 39250
L54830 39290
L54850 39390
L54850 39550
L54830 39650
L54780 39700
L54730 39720
L54640 39720
L54590 39700
L54540 39650
L54520 39550
L54520 39390
L54540 39290
L54590 39250
L54640 39220
" />
<path d="M55070 39720
L55070 39220
L55350 39720
L55350 39220
" />
<path d="M55520 39220
L55810 39220
" />
<path d="M55660 39720
L55660 39220
" />
</g>
<g style="fill:#840000; fill-opacity:0.0; 
stroke:#840000; stroke-width:60; stroke-opacity:1; 
stroke-linecap:round; stroke-linejoin:round;">
<text x="52750" y="39400"
textLength="540" font-size="660" lengthAdjust="spacingAndGlyphs"
text-anchor="middle" opacity="0">5</text>
<path d="M52860 38870
L52630 38870
L52600 39110
L52630 39090
L52670 39060
L52790 39060
L52840 39090
L52860 39110
L52890 39160
L52890 39280
L52860 39320
L52840 39350
L52790 39370
L52670 39370
L52630 39350
L52600 39320
" />
<path d="M53500 37500
L52000 37500
" />
</g>
<g style="fill:#008484; fill-opacity:0.0; 
stroke:#008484; stroke-width:60; stroke-opacity:1; 
stroke-linecap:round; stroke-linejoin:round;">
<text x="53900" y="37750"
textLength="2390" font-size="660" lengthAdjust="spacingAndGlyphs"
text-anchor="start" opacity="0">THRES</text>
<path d="M53970 37220
L54260 37220
" />
<path d="M54120 37720
L54120 37220
" />
<path d="M54430 37720
L54430 37220
" />
<path d="M54430 37460
L54710 37460
" />
<path d="M54710 37720
L54710 37220
" />
<path d="M55230 37720
L55070 37480
" />
<path d="M54950 37720
L54950 37220
L55140 37220
L55190 37250
L55210 37270
L55230 37320
L55230 37390
L55210 37440
L55190 37460
L55140 37480
L54950 37480
" />
<path d="M55450 37460
L55620 37460
" />
<path d="M55690 37720
L55450 37720
L55450 37220
L55690 37220
" />
<path d="M55880 37700
L55950 37720
L56070 37720
L56120 37700
L56140 37670
L56160 37630
L56160 37580
L56140 37530
L56120 37510
L56070 37480
L55970 37460
L55930 37440
L55900 37410
L55880 37360
L55880 37320
L55900 37270
L55930 37250
L55970 37220
L56090 37220
L56160 37250
" />
</g>
<g style="fill:#840000; fill-opacity:0.0; 
stroke:#840000; stroke-width:60; stroke-opacity:1; 
stroke-linecap:round; stroke-linejoin:round;">
<text x="52750" y="37400"
textLength="540" font-size="660" lengthAdjust="spacingAndGlyphs"
text-anchor="middle" opacity="0">6</text>
<path d="M52840 36870
L52750 36870
L52700 36900
L52670 36920
L52630 36990
L52600 37090
L52600 37280
L52630 37320
L52650 37350
L52700 37370
L52790 37370
L52840 37350
L52860 37320
L52890 37280
L52890 37160
L52860 37110
L52840 37090
L52790 37060
L52700 37060
L52650 37090
L52630 37110
L52600 37160
" />
<path d="M60500 37500
L62000 37500
" />
</g>
<g style="fill:#008484; fill-opacity:0.0; 
stroke:#008484; stroke-width:60; stroke-opacity:1; 
stroke-linecap:round; stroke-linejoin:round;">
<text x="60100" y="37750"
textLength="2300" font-size="660" lengthAdjust="spacingAndGlyphs"
text-anchor="end" opacity="0">DISCH</text>
<path d="M57950 37720
L57950 37220
L58070 37220
L58140 37250
L58180 37290
L58210 37340
L58230 37440
L58230 37510
L58210 37600
L58180 37650
L58140 37700
L58070 37720
L57950 37720
" />
<path d="M58450 37720
L58450 37220
" />
<path d="M58660 37700
L58730 37720
L58850 37720
L58900 37700
L58920 37670
L58950 37630
L58950 37580
L58920 37530
L58900 37510
L58850 37480
L58760 37460
L58710 37440
L58680 37410
L58660 37360
L58660 37320
L58680 37270
L58710 37250
L58760 37220
L58870 37220
L58950 37250
" />
<path d="M59450 37670
L59420 37700
L59350 37720
L59300 37720
L59230 37700
L59180 37650
L59160 37600
L59140 37510
L59140 37440
L59160 37340
L59180 37290
L59230 37250
L59300 37220
L59350 37220
L59420 37250
L59450 37270
" />
<path d="M59660 37720
L59660 37220
" />
<path d="M59660 37460
L59950 37460
" />
<path d="M59950 37720
L59950 37220
" />
</g>
<g style="fill:#840000; fill-opacity:0.0; 
stroke:#840000; stroke-width:60; stroke-opacity:1; 
stroke-linecap:round; stroke-linejoin:round;">
<text x="61250" y="37400"
textLength="540" font-size="660" lengthAdjust="spacingAndGlyphs"
text-anchor="middle" opacity="0">7</text>
<path d="M61080 36870
L61410 36870
L61200 37370
" />
<path d="M57000 35500
L57000 34500
" />
</g>
<g style="fill:#008484; fill-opacity:0.0; 
stroke:#008484; stroke-width:60; stroke-opacity:1; 
stroke-linecap:round; stroke-linejoin:round;">
<g transform="rotate(-90 57000 35900)">
<text x="57000" y="36150"
textLength="1490" font-size="660" lengthAdjust="spacingAndGlyphs"
text-anchor="end" opacity="0">VCC</text>
</g>
<path d="M56720 37310
L57220 37140
L56720 36970
" />
<path d="M57170 36520
L57200 36540
L57220 36620
L57220 36660
L57200 36730
L57150 36780
L57100 36810
L57010 36830
L56940 36830
L56840 36810
L56790 36780
L56750 36730
L56720 36660
L56720 36620
L56750 36540
L56770 36520
" />
<path d="M57170 36020
L57200 36040
L57220 36120
L57220 36160
L57200 36230
L57150 36280
L57100 36310
L57010 36330
L56940 36330
L56840 36310
L56790 36280
L56750 36230
L56720 36160
L56720 36120
L56750 36040
L56770 36020
" />
</g>
<g style="fill:#840000; fill-opacity:0.0; 
stroke:#840000; stroke-width:60; stroke-opacity:1; 
stroke-linecap:round; stroke-linejoin:round;">
<g transform="rotate(-90 56900 35000)">
<text x="56900" y="35000"
textLength="540" font-size="660" lengthAdjust="spacingAndGlyphs"
text-anchor="middle" opacity="0">8</text>
</g>
<path d="M56590 35040
L56560 35090
L56540 35110
L56490 35140
L56470 35140
L56420 35110
L56400 35090
L56370 35040
L56370 34950
L56400 34900
L56420 34880
L56470 34850
L56490 34850
L56540 34880
L56560 34900
L56590 34950
L56590 35040
L56610 35090
L56630 35110
L56680 35140
L56780 35140
L56820 35110
L56850 35090
L56870 35040
L56870 34950
L56850 34900
L56820 34880
L56780 34850
L56680 34850
L56630 34880
L56610 34900
L56590 34950
" />
</g>
<g style="fill:#008484; fill-opacity:0.0; 
stroke:#008484; stroke-width:60; stroke-opacity:1; 
stroke-linecap:round; stroke-linejoin:round;">
<text x="58000" y="34830"
textLength="1260" font-size="800" lengthAdjust="spacingAndGlyphs"
text-anchor="middle" opacity="0">U1</text>
<path d="M57540 34200
L57540 34680
L57570 34740
L57600 34770
L57650 34800
L57770 34800
L57820 34770
L57850 34740
L57880 34680
L57880 34200
" />
<path d="M58480 34800
L58140 34800
" />
<path d="M58310 34800
L58310 34200
L58250 34280
L58200 34340
L58140 34370
" />
<text x="60000" y="34830"
textLength="1770" font-size="800" lengthAdjust="spacingAndGlyphs"
text-anchor="middle" opacity="0">555</text>
<path d="M59570 34200
L59280 34200
L59250 34480
L59280 34450
L59340 34430
L59480 34430
L59540 34450
L59570 34480
L59600 34540
L59600 34680
L59570 34740
L59540 34770
L59480 34800
L59340 34800
L59280 34770
L59250 34740
" />
<path d="M60140 34200
L59850 34200
L59820 34480
L59850 34450
L59910 34430
L60050 34430
L60110 34450
L60140 34480
L60170 34540
L60170 34680
L60140 34740
L60110 34770
L60050 34800
L59910 34800
L59850 34770
L59820 34740
" />
<path d="M60710 34200
L60420 34200
L60400 34480
L60420 34450
L60480 34430
L60620 34430
L60680 34450
L60710 34480
L60740 34540
L60740 34680
L60710 34740
L60680 34770
L60620 34800
L60480 34800
L60420 34770
L60400 34740
" />
</g>
</g>
<g style="fill:#008484; fill-opacity:0.0; 
stroke:#008484; stroke-width:0; stroke-opacity:1; 
stroke-linecap:round; stroke-linejoin:round;">
<g >
</g>
<g style="fill:#850000; fill-opacity:0.0; 
stroke:#850000; stroke-width:0; stroke-opacity:1; 
stroke-linecap:round; stroke-linejoin:round;">
</g>
<g style="fill:#850000; fill-opacity:0.0; 
stroke:#850000; stroke-width:200; stroke-opacity:1; 
stroke-linecap:round; stroke-linejoin:round;">
<path style="fill:#850000; fill-opacity:0.0; 
stroke:#850000; stroke-width:200; stroke-opacity:1; 
stroke-linecap:round; stroke-linejoin:round;fill:none"
d="M 42700,40800
44300,40800
" /> 
<path style="fill:#850000; fill-opacity:0.0; 
stroke:#850000; stroke-width:200; stroke-opacity:1; 
stroke-linecap:round; stroke-linejoin:round;fill:none"
d="M 42700,40200
44300,40200
" /> 
</g>
<g style="fill:#840000; fill-opacity:0.0; 
stroke:#840000; stroke-width:200; stroke-opacity:1; 
stroke-linecap:round; stroke-linejoin:round;">
</g>
<g style="fill:#840000; fill-opacity:0.0; 
stroke:#840000; stroke-width:60; stroke-opacity:1; 
stroke-linecap:round; stroke-linejoin:round;">
<path d="M43500 40100
L43500 39000
" />
<path d="M43500 40900
L43500 42000
" />
</g>
<g style="fill:#008484; fill-opacity:0.0; 
stroke:#008484; stroke-width:60; stroke-opacity:1; 
stroke-linecap:round; stroke-linejoin:round;">
<text x="41520" y="40270"
textLength="1040" font-size="660" lengthAdjust="spacingAndGlyphs"
text-anchor="middle" opacity="0">C1</text>
<path d="M41430 40190
L41410 40220
L41340 40240
L41290 40240
L41220 40220
L41170 40170
L41150 40120
L41120 40030
L41120 39960
L41150 39860
L41170 39810
L41220 39770
L41290 39740
L41340 39740
L41410 39770
L41430 39790
" />
<path d="M41910 40240
L41620 40240
" />
<path d="M41770 40240
L41770 39740
L41720 39810
L41670 39860
L41620 39880
" />
<text x="41330" y="41270"
textLength="1660" font-size="660" lengthAdjust="spacingAndGlyphs"
text-anchor="middle" opacity="0">.1uF</text>
<path d="M40650 41190
L40670 41220
L40650 41240
L40620 41220
L40650 41190
L40650 41240
" />
<path d="M41150 41240
L40860 41240
" />
<path d="M41000 41240
L41000 40740
L40960 40810
L40910 40860
L40860 40880
" />
<path d="M41580 40910
L41580 41240
" />
<path d="M41360 40910
L41360 41170
L41380 41220
L41430 41240
L41500 41240
L41550 41220
L41580 41190
" />
<path d="M41980 40980
L41810 40980
" />
<path d="M41810 41240
L41810 40740
L42050 40740
" />
</g>
</g>
<g style="fill:#008484; fill-opacity:0.0; 
stroke:#008484; stroke-width:60; stroke-opacity:1; 
stroke-linecap:round; stroke-linejoin:round;">
</g>
<g style="fill:#008400; fill-opacity:0.0; 
stroke:#008400; stroke-width:60; stroke-opacity:1; 
stroke-linecap:round; stroke-linejoin:round;">
<path d="M52000 39500
L51500 39500
" />
<path d="M62000 38500
L63500 38500
" />
<path d="M46000 37500
L46000 38500
" />
<path d="M60000 43500
L62000 43500
" />
<path d="M57000 32500
L51500 32500
" />
<path d="M46000 32500
L43500 32500
" />
<path d="M43500 32500
L43500 39000
" />
<path d="M56000 46000
L58500 46000
" />
<path d="M52000 37500
L46000 37500
" />
<path d="M60000 44500
L60000 43500
" />
<path d="M49500 46000
L53000 46000
" />
<path d="M43500 42000
L43500 52500
" />
<path d="M57000 52500
L57000 54500
" />
<path d="M62000 46000
L63500 46000
" />
<path d="M51500 32500
L51500 36500
" />
<path d="M62000 43500
L62000 46000
" />
<path d="M63500 38500
L63500 46000
" />
<path d="M61500 46000
L62000 46000
" />
<path d="M46000 36000
L46000 37500
" />
<path d="M37500 52500
L43500 52500
" />
<path d="M33000 32500
L34500 32500
" />
<path d="M33000 52500
L37500 52500
" />
<path d="M51500 36500
L52000 36500
" />
<path d="M34500 31000
L34500 32500
" />
<path d="M57000 32500
L57000 34500
" />
<path d="M34500 32500
L37500 32500
" />
<path d="M46000 52000
L46000 52500
" />
<path d="M46000 32500
L46000 33000
" />
<path d="M63500 38500
L66000 38500
" />
<path d="M69000 38500
L70500 38500
" />
<path d="M46000 52500
L51500 52500
" />
<path d="M51500 32500
L46000 32500
" />
<path d="M57000 52500
L57000 41500
" />
<path d="M37500 39500
L37500 41500
" />
<path d="M37500 32500
L37500 36500
" />
<path d="M51500 52500
L51500 52000
" />
<path d="M37500 32500
L43500 32500
" />
<path d="M37500 44500
L37500 52500
" />
<path d="M57000 52500
L51500 52500
" />
<path d="M43500 52500
L46000 52500
" />
<path d="M49500 38500
L46000 38500
" />
<path d="M49500 38500
L49500 46000
" />
<path d="M52000 38500
L49500 38500
" />
<path d="M51500 39500
L51500 49000
" />
<path d="M46000 38500
L46000 49000
" />
</g>
<g style="fill:#848400; fill-opacity:0.0; 
stroke:#848400; stroke-width:60; stroke-opacity:1; 
stroke-linecap:round; stroke-linejoin:round;">
<text x="71100" y="38750"
textLength="1320" font-size="660" lengthAdjust="spacingAndGlyphs"
text-anchor="start" opacity="0">Out</text>
<path d="M71340 38220
L71430 38220
L71480 38250
L71530 38290
L71550 38390
L71550 38550
L71530 38650
L71480 38700
L71430 38720
L71340 38720
L71290 38700
L71240 38650
L71220 38550
L71220 38390
L71240 38290
L71290 38250
L71340 38220
" />
<path d="M71980 38390
L71980 38720
" />
<path d="M71770 38390
L71770 38650
L71790 38700
L71840 38720
L71910 38720
L71960 38700
L71980 38670
" />
<path d="M72150 38390
L72340 38390
" />
<path d="M72220 38220
L72220 38650
L72240 38700
L72290 38720
L72340 38720
" />
</g>
<g style="fill:#848400; fill-opacity:0.0; 
stroke:#848400; stroke-width:100; stroke-opacity:1; 
stroke-linecap:round; stroke-linejoin:round;">
<path style="fill:#848400; fill-opacity:0.0; 
stroke:#848400; stroke-width:100; stroke-opacity:1; 
stroke-linecap:round; stroke-linejoin:round;fill:none"
d="M 70500,38500
70750,38750
71000,38750
71000,38250
70750,38250
Z" /> 
</g>
<g style="fill:#848400; fill-opacity:0.0; 
stroke:#848400; stroke-width:60; stroke-opacity:1; 
stroke-linecap:round; stroke-linejoin:round;">
<text x="32400" y="52750"
textLength="1580" font-size="660" lengthAdjust="spacingAndGlyphs"
text-anchor="end" opacity="0">GND</text>
<path d="M31220 52250
L31170 52220
L31100 52220
L31030 52250
L30980 52290
L30960 52340
L30940 52440
L30940 52510
L30960 52600
L30980 52650
L31030 52700
L31100 52720
L31150 52720
L31220 52700
L31250 52670
L31250 52510
L31150 52510
" />
<path d="M31460 52720
L31460 52220
L31750 52720
L31750 52220
" />
<path d="M31980 52720
L31980 52220
L32100 52220
L32170 52250
L32220 52290
L32250 52340
L32270 52440
L32270 52510
L32250 52600
L32220 52650
L32170 52700
L32100 52720
L31980 52720
" />
</g>
<g style="fill:#848400; fill-opacity:0.0; 
stroke:#848400; stroke-width:100; stroke-opacity:1; 
stroke-linecap:round; stroke-linejoin:round;">
<path style="fill:#848400; fill-opacity:0.0; 
stroke:#848400; stroke-width:100; stroke-opacity:1; 
stroke-linecap:round; stroke-linejoin:round;fill:none"
d="M 33000,52500
32750,52250
32500,52250
32500,52750
32750,52750
Z" /> 
</g>
<g style="fill:#848400; fill-opacity:0.0; 
stroke:#848400; stroke-width:60; stroke-opacity:1; 
stroke-linecap:round; stroke-linejoin:round;">
<text x="32400" y="32750"
textLength="920" font-size="660" lengthAdjust="spacingAndGlyphs"
text-anchor="end" opacity="0">9v</text>
<path d="M31650 32720
L31750 32720
L31790 32700
L31820 32670
L31870 32600
L31890 32510
L31890 32320
L31870 32270
L31840 32250
L31790 32220
L31700 32220
L31650 32250
L31630 32270
L31600 32320
L31600 32440
L31630 32480
L31650 32510
L31700 32530
L31790 32530
L31840 32510
L31870 32480
L31890 32440
" />
<path d="M32060 32390
L32170 32720
L32290 32390
" />
</g>
<g style="fill:#848400; fill-opacity:0.0; 
stroke:#848400; stroke-width:100; stroke-opacity:1; 
stroke-linecap:round; stroke-linejoin:round;">
<path style="fill:#848400; fill-opacity:0.0; 
stroke:#848400; stroke-width:100; stroke-opacity:1; 
stroke-linecap:round; stroke-linejoin:round;fill:none"
d="M 33000,32500
32750,32250
32500,32250
32500,32750
32750,32750
Z" /> 
</g>
<g style="fill:#848400; fill-opacity:0.0; 
stroke:#848400; stroke-width:0; stroke-opacity:1; 
stroke-linecap:round; stroke-linejoin:round;">
</g>
<g style="fill:#008400; fill-opacity:0.0; 
stroke:#008400; stroke-width:0; stroke-opacity:1; 
stroke-linecap:round; stroke-linejoin:round;">
</g>
<g style="fill:#008400; fill-opacity:1.0; 
stroke:#008400; stroke-width:100; stroke-opacity:1; 
stroke-linecap:round; stroke-linejoin:round;">
<circle cx="49500" cy="38500" r="200" /> 
</g>
<g style="fill:#008400; fill-opacity:1.0; 
stroke:#008400; stroke-width:0; stroke-opacity:1; 
stroke-linecap:round; stroke-linejoin:round;">
</g>
<g style="fill:#008400; fill-opacity:1.0; 
stroke:#008400; stroke-width:100; stroke-opacity:1; 
stroke-linecap:round; stroke-linejoin:round;">
<circle cx="46000" cy="52500" r="200" /> 
</g>
<g style="fill:#008400; fill-opacity:1.0; 
stroke:#008400; stroke-width:0; stroke-opacity:1; 
stroke-linecap:round; stroke-linejoin:round;">
</g>
<g style="fill:#008400; fill-opacity:1.0; 
stroke:#008400; stroke-width:100; stroke-opacity:1; 
stroke-linecap:round; stroke-linejoin:round;">
<circle cx="51500" cy="52500" r="200" /> 
</g>
<g style="fill:#008400; fill-opacity:1.0; 
stroke:#008400; stroke-width:0; stroke-opacity:1; 
stroke-linecap:round; stroke-linejoin:round;">
</g>
<g style="fill:#008400; fill-opacity:1.0; 
stroke:#008400; stroke-width:100; stroke-opacity:1; 
stroke-linecap:round; stroke-linejoin:round;">
<circle cx="37500" cy="52500" r="200" /> 
</g>
<g style="fill:#008400; fill-opacity:1.0; 
stroke:#008400; stroke-width:0; stroke-opacity:1; 
stroke-linecap:round; stroke-linejoin:round;">
</g>
<g style="fill:#008400; fill-opacity:1.0; 
stroke:#008400; stroke-width:100; stroke-opacity:1; 
stroke-linecap:round; stroke-linejoin:round;">
<circle cx="37500" cy="32500" r="200" /> 
</g>
<g style="fill:#008400; fill-opacity:1.0; 
stroke:#008400; stroke-width:0; stroke-opacity:1; 
stroke-linecap:round; stroke-linejoin:round;">
</g>
<g style="fill:#008400; fill-opacity:1.0; 
stroke:#008400; stroke-width:100; stroke-opacity:1; 
stroke-linecap:round; stroke-linejoin:round;">
<circle cx="63500" cy="38500" r="200" /> 
</g>
<g style="fill:#008400; fill-opacity:1.0; 
stroke:#008400; stroke-width:0; stroke-opacity:1; 
stroke-linecap:round; stroke-linejoin:round;">
</g>
<g style="fill:#008400; fill-opacity:1.0; 
stroke:#008400; stroke-width:100; stroke-opacity:1; 
stroke-linecap:round; stroke-linejoin:round;">
<circle cx="57000" cy="52500" r="200" /> 
</g>
<g style="fill:#008400; fill-opacity:1.0; 
stroke:#008400; stroke-width:0; stroke-opacity:1; 
stroke-linecap:round; stroke-linejoin:round;">
</g>
<g style="fill:#008400; fill-opacity:1.0; 
stroke:#008400; stroke-width:100; stroke-opacity:1; 
stroke-linecap:round; stroke-linejoin:round;">
<circle cx="34500" cy="32500" r="200" /> 
</g>
<g style="fill:#008400; fill-opacity:1.0; 
stroke:#008400; stroke-width:0; stroke-opacity:1; 
stroke-linecap:round; stroke-linejoin:round;">
</g>
<g style="fill:#008400; fill-opacity:1.0; 
stroke:#008400; stroke-width:100; stroke-opacity:1; 
stroke-linecap:round; stroke-linejoin:round;">
<circle cx="51500" cy="32500" r="200" /> 
</g>
<g style="fill:#008400; fill-opacity:1.0; 
stroke:#008400; stroke-width:0; stroke-opacity:1; 
stroke-linecap:round; stroke-linejoin:round;">
</g>
<g style="fill:#008400; fill-opacity:1.0; 
stroke:#008400; stroke-width:100; stroke-opacity:1; 
stroke-linecap:round; stroke-linejoin:round;">
<circle cx="43500" cy="32500" r="200" /> 
</g>
<g style="fill:#008400; fill-opacity:1.0; 
stroke:#008400; stroke-width:0; stroke-opacity:1; 
stroke-linecap:round; stroke-linejoin:round;">
</g>
<g style="fill:#008400; fill-opacity:1.0; 
stroke:#008400; stroke-width:100; stroke-opacity:1; 
stroke-linecap:round; stroke-linejoin:round;">
<circle cx="62000" cy="46000" r="200" /> 
</g>
<g style="fill:#008400; fill-opacity:1.0; 
stroke:#008400; stroke-width:0; stroke-opacity:1; 
stroke-linecap:round; stroke-linejoin:round;">
</g>
<g style="fill:#008400; fill-opacity:1.0; 
stroke:#008400; stroke-width:100; stroke-opacity:1; 
stroke-linecap:round; stroke-linejoin:round;">
<circle cx="43500" cy="52500" r="200" /> 
</g>
<g style="fill:#008400; fill-opacity:1.0; 
stroke:#008400; stroke-width:0; stroke-opacity:1; 
stroke-linecap:round; stroke-linejoin:round;">
</g>
<g style="fill:#008400; fill-opacity:1.0; 
stroke:#008400; stroke-width:100; stroke-opacity:1; 
stroke-linecap:round; stroke-linejoin:round;">
<circle cx="46000" cy="32500" r="200" /> 
</g>
<g style="fill:#008400; fill-opacity:1.0; 
stroke:#008400; stroke-width:0; stroke-opacity:1; 
stroke-linecap:round; stroke-linejoin:round;">
</g>
<g style="fill:#008400; fill-opacity:1.0; 
stroke:#008400; stroke-width:100; stroke-opacity:1; 
stroke-linecap:round; stroke-linejoin:round;">
<circle cx="46000" cy="37500" r="200" /> 
</g>
<g style="fill:#008400; fill-opacity:1.0; 
stroke:#008400; stroke-width:0; stroke-opacity:1; 
stroke-linecap:round; stroke-linejoin:round;">
</g>
<g style="fill:#008400; fill-opacity:1.0; 
stroke:#008400; stroke-width:100; stroke-opacity:1; 
stroke-linecap:round; stroke-linejoin:round;">
<circle cx="46000" cy="38500" r="200" /> 
</g>
<g style="fill:#008400; fill-opacity:1.0; 
stroke:#008400; stroke-width:60; stroke-opacity:1; 
stroke-linecap:round; stroke-linejoin:round;">
</g>
<g style="fill:#000084; fill-opacity:1.0; 
stroke:#000084; stroke-width:60; stroke-opacity:1; 
stroke-linecap:round; stroke-linejoin:round;">
</g>
<g style="fill:#000084; fill-opacity:0.0; 
stroke:#000084; stroke-width:60; stroke-opacity:1; 
stroke-linecap:round; stroke-linejoin:round;">
<path d="M61760 37260
L62240 37740
" />
<path d="M62240 37260
L61760 37740
" />
<path d="M56760 45760
L57240 46240
" />
<path d="M57240 45760
L56760 46240
" />
</g> 
</svg>
