<?xml version="1.0" encoding="UTF-8" standalone="no"?>
<svg
   xmlns:dc="http://purl.org/dc/elements/1.1/"
   xmlns:cc="http://creativecommons.org/ns#"
   xmlns:rdf="http://www.w3.org/1999/02/22-rdf-syntax-ns#"
   xmlns:svg="http://www.w3.org/2000/svg"
   xmlns="http://www.w3.org/2000/svg"
   xmlns:sodipodi="http://sodipodi.sourceforge.net/DTD/sodipodi-0.dtd"
   xmlns:inkscape="http://www.inkscape.org/namespaces/inkscape"
   sodipodi:docname="heart.svg"
   inkscape:version="1.0 (4035a4f, 2020-05-01)"
   id="svg8"
   version="1.1"
   viewBox="0 0 2.5 2.5"
   height="2.5mm"
   width="2.5mm">
  <defs
     id="defs2" />
  <sodipodi:namedview
     inkscape:window-maximized="0"
     inkscape:window-y="25"
     inkscape:window-x="0"
     inkscape:window-height="1027"
     inkscape:window-width="1920"
     showgrid="false"
     inkscape:document-rotation="0"
     inkscape:current-layer="layer1"
     inkscape:document-units="mm"
     inkscape:cy="9.4488195"
     inkscape:cx="-4.377298e-08"
     inkscape:zoom="38.927823"
     inkscape:pageshadow="2"
     inkscape:pageopacity="0.0"
     borderopacity="1.0"
     bordercolor="#666666"
     pagecolor="#ffffff"
     id="base" />
  <metadata
     id="metadata5">
    <rdf:RDF>
      <cc:Work
         rdf:about="">
        <dc:format>image/svg+xml</dc:format>
        <dc:type
           rdf:resource="http://purl.org/dc/dcmitype/StillImage" />
        <dc:title></dc:title>
      </cc:Work>
    </rdf:RDF>
  </metadata>
  <g
     id="layer1"
     inkscape:groupmode="layer"
     inkscape:label="Layer 1">
    <path
       sodipodi:nodetypes="ccccccccccc"
       d="m -1.254978,0.20000222 c -0.6884354,0.002404 -1.2450607,0.49170914 -1.2450262,1.09444798 4.69e-5,0.018107 6.071e-4,0.03621 0.00168,0.054293 C -2.4989911,2.8591509 -1.0144704,3.5015434 0.019656,4.2 0.98891295,3.5080387 2.4938234,2.770265 2.4996086,1.3222754 2.4998723,1.3130024 2.5000013,1.303726 2.4999956,1.2944504 2.5000248,0.69003688 1.9404136,0.20003911 1.2500603,0.20000222 0.56161959,0.19997197 0.00274156,0.68730488 -4.2238689e-6,1.290039 -0.00274981,0.68734904 -0.56154925,0.20003426 -1.2499396,0.20000222 c -0.00168,-2.96e-6 -0.00336,-2.96e-6 -0.00504,0 z"
       style="fill:#ff0000;fill-opacity:1;fill-rule:evenodd;stroke:none;stroke-width:0.0770172;stroke-linejoin:round"
       id="path833" />
  </g>
</svg>
